<svg width="216" height="216" viewBox="0 0 216 216" fill="none" xmlns="http://www.w3.org/2000/svg">
<path d="M146.156 118.3C143.529 117.56 140.878 117.639 138.267 118.271C136.094 118.798 133.974 119.535 131.837 120.176C129.857 111.952 125.934 104.725 119.695 98.8539C121.066 97.8746 122.358 96.9882 123.613 96.0454C126.534 93.8508 129.123 91.3393 130.981 88.1471C132.009 86.3819 132.605 84.4918 132.504 82.4388C132.381 79.8116 131.063 77.789 129.144 76.1229C126.202 73.5688 122.629 72.6199 118.861 72.358C115.43 72.1143 112.039 72.5346 108.693 73.3403C101.323 75.1146 94.5763 78.3145 88.1797 82.3276C80.5646 87.1008 73.8785 92.9888 67.7393 99.5073C65.5111 101.874 63.3073 104.287 62.0249 107.387C61.9244 107.082 61.8795 106.761 61.8924 106.44C62.0584 104.835 62.229 103.23 62.4452 101.632C62.5397 100.939 62.3432 100.424 61.7507 100.092C61.1583 99.7601 60.5933 99.9185 60.1866 100.42C59.924 100.755 59.7238 101.135 59.5957 101.542C59.0017 103.37 59.0383 105.254 59.1982 107.118C59.2877 108.172 59.5608 109.203 60.0054 110.164C60.8126 111.87 62.2 111.952 63.5738 110.487C65.2659 108.683 66.6 106.551 68.2007 104.655C73.085 98.8752 78.6578 93.8264 84.7285 89.3152C91.2912 84.4416 98.3108 80.4284 106.165 78.0266C110.862 76.5904 115.638 75.6355 120.594 76.4488C122.821 76.8143 124.921 77.5149 126.679 78.9831C128.086 80.1528 129.088 81.6316 128.707 83.5354C128.451 84.7134 127.991 85.8375 127.347 86.8571C125.961 89.102 124.03 90.8855 121.978 92.5166C115.621 97.6098 108.218 101.239 100.298 103.146C98.8362 103.501 97.3315 103.676 95.7034 103.959C96.8715 103.006 97.9498 102.284 98.8393 101.37C100.565 99.6002 100.035 96.9775 97.8341 96.0394C97.455 95.9048 97.0673 95.7959 96.6735 95.7134C96.7008 95.6494 96.7366 95.5895 96.7802 95.5352C97.0025 95.3266 97.2264 95.1194 97.4594 94.926C100.134 92.6765 103.134 90.9662 106.322 89.5665C107.152 89.2041 108.031 88.9573 108.87 88.6147C109.462 88.3725 109.794 87.9171 109.711 87.2439C109.631 86.5936 109.21 86.3301 108.605 86.3423C107.874 86.3575 107.132 86.3423 106.418 86.4596C103.951 86.883 101.696 87.9141 99.4972 89.0487C92.7899 92.5144 86.7983 97.2167 81.8378 102.908C79.3355 105.778 77.0677 108.828 75.4183 112.282C74.8977 113.401 74.4708 114.56 74.142 115.749C73.7567 117.087 74.7756 118.033 76.0793 117.576C76.703 117.37 77.2981 117.086 77.8506 116.731C78.9867 115.97 80.1031 115.179 81.1768 114.335C84.2838 111.899 87.3314 109.369 90.7718 107.396C91.1083 107.214 91.4973 107.154 91.873 107.226C93.827 107.683 95.8009 107.709 97.7686 107.47C101.372 107.034 104.84 106.026 108.194 104.669C110.949 103.554 113.646 102.293 116.409 101.079C122.805 106.321 126.308 113.425 128.535 121.293C128.588 121.48 128.393 121.88 128.211 121.972C126.019 123.067 123.843 124.205 121.592 125.17C119.228 126.177 116.779 126.984 114.382 127.912C113.241 128.356 112.783 129.32 113.133 130.321C113.483 131.322 114.552 131.844 115.684 131.405C118.814 130.198 121.953 129.002 125.028 127.665C128.042 126.355 130.967 124.846 133.959 123.483C136.456 122.345 139.059 121.55 141.836 121.486C145.25 121.408 148.136 122.4 149.883 125.583C150.625 126.934 150.949 128.416 151.056 129.942C151.303 133.422 150.142 136.565 146.75 138.41C144.893 139.402 142.825 139.935 140.719 139.963C136.433 140.079 132.145 140.116 127.863 140.324C122.827 140.569 117.812 140.446 112.912 139.229C109.81 138.468 106.777 137.401 103.721 136.453C103.041 136.242 102.461 136.224 102.086 136.923C101.712 137.622 102.184 138.056 102.647 138.472C102.765 138.568 102.888 138.657 103.015 138.739C105.049 140.195 107.306 141.195 109.679 141.937C114.216 143.358 118.891 143.765 123.619 143.772H124.58C123.194 145.626 121.439 146.488 119.394 146.809C115.18 147.475 111.017 147.022 106.858 146.255C102.819 145.508 98.9687 144.142 95.1094 142.793C91.6065 141.575 88.0731 140.409 84.3203 140.204C83.6731 140.167 83.0349 140.17 82.7059 140.895C82.3907 141.588 82.7714 142.036 83.2192 142.491C88.4721 147.802 94.3083 152.356 100.837 155.993C105.533 158.608 110.364 160.941 115.801 161.511C120.084 161.968 123.76 160.62 126.546 157.246C128.855 154.446 129.857 151.154 129.961 147.558C129.997 146.273 129.961 144.986 129.961 143.641H135.9V144.372C135.902 147.134 135.602 149.888 135.003 152.584C132.871 162.233 127.739 169.842 119.437 175.23C116.209 177.324 112.641 178.637 108.775 178.785C103.652 178.98 98.7235 177.862 93.9352 176.13C86.0764 173.293 79.404 168.677 73.9395 162.39C71.5879 159.685 69.5349 156.719 67.3661 153.861C66.8605 153.194 66.236 153.023 65.4639 153.501C62.3402 155.439 58.9849 155.761 55.4653 154.954C52.0613 154.174 49.1325 152.46 46.4536 150.292C43.0374 147.528 40.3295 144.24 39.1278 139.918C37.8089 135.173 38.214 130.705 41.353 126.695C43.3801 124.106 45.7469 123.315 48.7914 124.514C50.2306 125.082 51.5953 125.916 52.8655 126.812C54.4022 127.898 55.4226 127.663 56.0379 125.755C56.7294 126.06 57.4528 126.296 58.0833 126.681C61.0319 128.484 63.0209 131.143 64.582 134.156C65.2918 135.527 65.8827 136.952 66.6244 138.299C67.1285 139.212 67.9692 139.779 69.0734 139.649C70.2522 139.512 70.9985 138.757 71.329 137.67C71.6124 136.753 71.8098 135.813 71.9184 134.86C72.3753 130.595 74.0704 126.89 76.8911 123.679C77.6115 122.86 77.6221 122.004 76.9428 121.302C76.2636 120.6 75.3361 120.58 74.5273 121.366C71.5559 124.247 68.4947 127.068 67.2823 131.341C67.0722 130.991 66.9168 130.732 66.766 130.476C65.2781 127.887 63.3941 125.664 60.942 123.949C58.854 122.487 56.5786 121.664 53.9361 122.121C53.9803 121.937 53.994 121.838 54.026 121.745C54.6519 119.888 55.5921 118.153 56.8055 116.615C57.7071 115.491 57.4695 114.32 56.1719 113.674C55.2231 113.204 54.2636 112.703 53.2523 112.429C51.8668 112.073 50.4589 111.812 49.0381 111.646C48.4198 111.563 47.9933 112.022 47.8943 112.64C47.7923 113.284 48.0756 113.783 48.6833 114.048C48.9224 114.127 49.1673 114.187 49.4158 114.227L53.6727 115.328L50.6662 121.165C50.4515 121.081 50.1256 120.95 49.7966 120.826C46.5495 119.608 43.5202 120.018 40.794 122.158C37.1997 124.98 35.4482 128.847 34.9563 133.276C34.4309 137.997 35.6021 142.403 38.1424 146.374C41.5175 151.651 46.2647 155.359 52.0019 157.775C55.0038 159.041 58.1473 159.491 61.3654 158.824C62.7361 158.542 64.0475 158.032 65.4441 157.606C65.5004 157.68 65.6223 157.84 65.7395 158.003C69.0338 162.554 72.5611 166.89 76.923 170.492C84.9509 177.122 94.0829 181.153 104.449 182.324C109.733 182.923 114.724 181.968 119.424 179.501C124.389 176.895 128.375 173.165 131.726 168.712C136.196 162.772 138.659 156.081 139.251 148.689C139.385 147.028 139.496 145.367 139.621 143.649C139.812 143.649 140.009 143.649 140.206 143.649C142.592 143.693 144.959 143.221 147.145 142.264C150.576 140.761 153.165 138.445 154.131 134.678C154.917 131.72 154.818 128.595 153.845 125.693C152.587 121.899 150.039 119.395 146.156 118.3ZM121.686 149.564C121.544 150.478 121.447 151.349 121.266 152.202C121.113 152.906 120.751 153.503 119.918 153.497C119.117 153.497 118.689 152.98 118.533 152.24C118.398 151.582 118.306 150.917 118.191 150.23L121.686 149.564ZM114.336 150.213C114.848 150.213 115.224 150.419 115.265 150.975C115.343 151.717 115.373 152.464 115.356 153.21C115.318 153.914 114.778 153.984 114.237 153.801C112.802 153.319 111.905 152.245 111.229 150.953C111.119 150.711 111.023 150.462 110.943 150.209C112.117 150.212 113.227 150.21 114.339 150.213H114.336ZM120.594 157.613C118.919 158.413 117.137 158.346 115.372 158.14C111.185 157.653 107.402 155.941 103.711 154.045C99.1561 151.703 94.7941 149.037 90.8312 145.764C90.2875 145.317 89.7758 144.829 89.0828 144.211C95.4795 146.089 101.5 148.535 107.942 149.564C108.619 152.883 110.245 155.338 113.52 156.43C113.974 156.583 114.447 156.673 114.925 156.697C116.328 156.754 116.82 156.409 117.362 155.046C118.157 155.828 119.05 156.357 120.187 156.425C121.357 156.496 122.222 155.938 123.054 155.227C122.54 156.336 121.686 157.097 120.597 157.613H120.594Z" fill="#2563EB"/>
<path d="M114.277 114.141C114.429 117.393 116.142 119.842 118.512 121.909C118.652 122.031 118.986 122.032 119.187 121.964C120.57 121.489 121.946 120.996 123.316 120.483C124.409 120.077 124.889 119.33 124.717 118.183C124.135 114.317 122.573 110.926 119.658 108.259C116.424 105.302 111.921 106.354 110.328 110.416C110.041 111.147 109.861 111.921 109.674 112.539C109.301 112.235 108.904 111.919 108.523 111.589C107.291 110.523 105.921 109.833 104.237 110.054C102.234 110.317 101.075 111.645 100.291 113.348C99.1943 115.73 99.2476 118.222 99.8218 120.71C100.431 123.343 101.578 125.716 103.629 127.564C104.281 128.15 104.933 128.206 105.489 127.788C106.013 127.395 106.115 126.705 105.723 125.928C105.405 125.296 105.047 124.685 104.706 124.065C103.562 121.989 102.615 119.845 102.581 117.42C102.565 116.245 102.734 115.092 103.437 114.096C104.031 113.26 104.817 113.164 105.599 113.811C104.551 114.677 104.168 115.833 104.426 117.274C104.9 119.924 106.145 122.148 108.028 124.059C108.404 124.438 108.742 124.53 109.232 124.373C110.405 123.997 111.589 123.654 112.775 123.296C112.99 123.695 113.133 124.021 113.329 124.311C113.786 124.994 114.58 125.31 115.157 124.999C115.902 124.6 115.721 123.933 115.491 123.333C114.991 122.038 114.434 120.768 113.908 119.484C113.119 117.557 112.42 115.61 112.601 113.473C112.703 112.254 113.013 111.127 113.908 110.245C114.504 109.658 115.357 109.618 116.097 110.093C114.482 111.601 114.179 112.146 114.277 114.141Z" fill="#2563EB"/>
<path d="M54.978 132.739C53.7779 132.17 52.5138 131.781 51.1705 131.918C48.3407 132.209 46.7674 134.66 47.4772 137.648C48.1321 140.412 49.7297 142.598 51.8254 144.436C54.1967 146.519 56.9503 147.732 60.4198 147.881C60.8188 147.825 61.5057 147.78 62.1682 147.628C63.9105 147.228 64.4893 146.452 64.0095 144.744C63.5374 143.068 62.9586 141.366 62.1362 139.83C60.4974 136.763 58.1977 134.262 54.978 132.739ZM56.501 142.378C55.5446 141.05 55.4349 139.553 55.7989 137.846C58.0043 139.62 59.311 141.829 60.3482 144.395C58.647 144.303 57.3996 143.627 56.501 142.378Z" fill="#2563EB"/>
<path d="M45.1668 64.3771C48.1113 67.6983 51.0482 71.0225 53.9774 74.3498C56.4432 77.1446 58.8937 79.9499 61.3808 82.7264C61.7098 83.095 62.2094 83.3112 62.4469 83.4696C63.4232 83.4468 63.97 83.165 64.2746 82.5452C64.6218 81.8598 64.4985 81.2049 64.0035 80.6414C61.3291 77.5954 58.648 74.5529 55.9604 71.514C53.1413 68.3156 50.31 65.1401 47.497 61.9433C44.3657 58.3855 41.2526 54.811 38.1228 51.2532C37.3217 50.3394 36.3318 50.21 35.5977 50.8664C34.7996 51.5792 34.7844 52.6651 35.5824 53.5682C38.7737 57.1727 41.9685 60.7757 45.1668 64.3771Z" fill="#2563EB"/>
<path d="M155.657 77.9756C156.388 78.4477 157.113 78.3183 157.975 77.5187C163.458 72.4318 168.941 67.3403 174.424 62.2443C177.543 59.3414 180.652 56.4264 183.751 53.4991C184.11 53.158 184.349 52.6919 184.645 52.2807C184.5 51.4613 184.211 50.9359 183.563 50.645C182.881 50.3404 182.216 50.3861 181.654 50.8994C180.848 51.635 180.08 52.4117 179.281 53.1534C172.829 59.144 166.375 65.1299 159.917 71.1113C158.429 72.4912 156.927 73.8528 155.45 75.2494C154.565 76.0931 154.673 77.3405 155.657 77.9756Z" fill="#2563EB"/>
<path d="M69.8153 49.0142C73.3548 55.9185 76.8989 62.8229 80.4475 69.7272C80.6387 70.1345 80.9307 70.4862 81.2958 70.7492C81.9431 71.1573 82.6102 71.0035 83.1691 70.4781C83.7783 69.9024 83.856 69.2063 83.4128 68.3367C79.2631 60.1896 75.1154 52.0414 70.9698 43.8923C70.4413 42.8566 69.925 41.8149 69.3569 40.8005C68.938 40.0573 68.1994 39.7634 67.4973 39.9674C66.716 40.1944 66.2956 40.7609 66.2073 41.6245C66.3095 41.981 66.4347 42.3305 66.5819 42.6708C67.645 44.7908 68.7309 46.9018 69.8153 49.0142Z" fill="#2563EB"/>
<path d="M101.125 64.9863C101.403 65.8239 102.138 66.2488 103.028 66.1194C103.917 65.9899 104.398 65.3959 104.398 64.4182C104.407 59.6735 104.407 54.9298 104.398 50.1871C104.398 45.4698 104.398 40.752 104.398 36.0337C104.398 34.8473 103.744 34.1131 102.723 34.1055C101.703 34.0979 101.016 34.8564 101.016 36.0108C101.016 45.4221 101.016 54.8323 101.016 64.2415C101.013 64.494 101.05 64.7454 101.125 64.9863Z" fill="#2563EB"/>
<path d="M130.767 67.3287C131.644 67.3927 132.082 66.7362 132.506 66.0539L143.737 48.0077C144.859 46.2029 145.997 44.4073 147.096 42.5888C147.489 41.94 147.521 41.2363 147.032 40.5982C146.6 40.0347 145.745 39.7362 145.127 40.088C144.644 40.3963 144.239 40.8136 143.947 41.3064C142.034 44.3174 140.159 47.3528 138.267 50.379C135.29 55.141 132.309 59.9014 129.323 64.6604C129.141 64.9202 129.034 65.2252 129.015 65.5418C128.995 65.8583 129.063 66.1741 129.212 66.4545C129.507 67.0515 130.022 67.3424 130.767 67.3287Z" fill="#2563EB"/>
<path d="M45.7211 98.098C46.3425 97.8634 46.6837 97.3806 46.7461 96.6389C46.8984 95.7723 46.2892 95.2682 45.6511 94.7793C40.0382 90.4539 34.4274 86.1276 28.8187 81.8002C27.1433 80.5025 25.468 79.1912 23.7638 77.9149C23.1546 77.458 22.4601 77.3575 21.7838 77.7794C21.1746 78.154 20.7985 78.9734 21.0863 79.6238C21.3056 80.1233 21.7427 80.5741 22.1829 80.9198C24.9868 83.1267 27.818 85.2939 30.6402 87.4795C35.0793 90.9184 39.5174 94.3615 43.9544 97.8086C44.1943 98.0136 44.4859 98.149 44.7973 98.2001C45.1088 98.2511 45.4283 98.2158 45.7211 98.098Z" fill="#2563EB"/>
<path d="M51.8833 107.437C51.0838 107.192 50.4608 107.559 50.2293 108.243C50.0146 108.884 50.3146 109.443 51.0716 109.801C51.1843 109.856 51.3076 109.889 51.4173 109.953C52.788 110.698 54.1679 111.431 55.5294 112.198C56.0549 112.503 56.5133 112.914 57.0433 113.202C57.7835 113.604 58.7034 113.354 59.3674 112.64C59.9767 111.985 60.1823 111.117 59.7908 110.494C58.4993 108.469 57.5754 106.232 57.0616 103.886C56.8941 103.098 56.3184 102.638 55.7168 102.667C55.0817 102.705 54.5471 103.277 54.4557 104.073C54.4235 104.349 54.4437 104.63 54.5151 104.899C54.8989 106.301 55.3071 107.696 55.7335 109.163C55.3781 108.924 55.0083 108.707 54.6263 108.513C53.7326 108.104 52.8168 107.745 51.8833 107.437Z" fill="#2563EB"/>
<path d="M193.845 110.568L187.532 103.506V103.401C187.425 103.334 187.323 103.258 187.228 103.174C184.147 99.9606 180.746 97.105 177.212 94.4169C174.312 92.2115 171.346 90.094 168.313 88.0644C166.611 86.9236 164.625 86.6754 162.626 87.2404C160.736 87.7765 158.871 88.4025 157 89.0086C149.871 91.319 142.684 93.398 135.386 95.1372C133.872 95.4982 132.321 95.8729 130.929 96.5384C128.814 97.5482 127.679 99.3651 127.854 101.759C128.025 104.094 129.327 105.719 131.499 106.554C133.033 107.148 134.668 107.218 136.293 107.151C139.529 106.998 142.732 106.425 145.82 105.445C147.172 105.026 148.503 104.531 149.749 104.112C149.42 105.407 149.024 106.702 148.767 108.039C148.185 111.033 149.623 113.531 152.437 114.435C153.266 114.699 154.151 114.787 155.013 114.956C154.801 119.547 158.516 122.448 162.208 121.926C162.319 122.274 162.427 122.632 162.546 122.992C162.976 124.275 163.857 125.359 165.025 126.044C166.193 126.728 167.569 126.967 168.9 126.715C170.616 126.383 172.004 125.442 173.05 124.102C174.169 122.669 175.109 121.099 176.172 119.62C176.908 118.595 177.639 117.545 178.516 116.647C179.552 115.581 180.851 115.936 181.41 117.311C181.484 117.499 181.543 117.692 181.585 117.89C182.06 119.933 181.844 121.971 181.492 124C180.785 128.071 179.262 131.874 177.395 135.517C175.644 138.933 173.627 142.218 171.775 145.569C170.114 148.586 168.7 151.711 167.949 155.098C167.655 156.417 168.332 157.215 169.693 157.155C169.894 157.138 170.095 157.11 170.293 157.072C174.207 156.495 178.122 156.463 182.031 157.104C183.898 157.409 185.77 157.905 187.523 156.699L188.406 155.446C188.406 155.446 194.803 121.731 195.694 117.3C196.585 112.87 193.845 110.568 193.845 110.568ZM192.243 118.336L186.227 150.863L185.866 152.645C185.604 153.952 185.038 154.296 183.699 154.043C180.726 153.481 177.729 153.225 174.702 153.455C173.664 153.534 172.625 153.607 171.327 153.699C172.738 150.907 173.956 148.216 175.42 145.659C177.736 141.621 180.01 137.569 181.829 133.277C183.547 129.224 184.777 125.052 184.875 120.611C184.919 118.619 184.722 116.662 183.717 114.882C182.462 112.666 180.133 111.988 177.86 113.133C176.551 113.796 175.592 114.839 174.783 116.013C173.592 117.743 172.499 119.545 171.3 121.263C170.648 122.192 169.87 123.047 168.732 123.436C167.361 123.904 166.271 123.411 165.905 122.012C165.733 121.331 165.721 120.62 165.872 119.934C166.353 117.858 167.585 116.167 168.962 114.603C169.949 113.484 171.068 112.484 172.119 111.423C172.8 110.734 172.826 109.606 172.197 108.953C171.568 108.299 170.613 108.24 169.948 108.87C167.039 111.612 164.369 114.547 162.888 118.362C162.824 118.529 162.602 118.747 162.447 118.752C160.575 118.816 158.639 118.174 158.42 115.521C158.267 113.694 159.018 112.171 159.925 110.689C161.295 108.467 163.076 106.599 164.95 104.808C165.79 104.007 165.835 102.981 165.145 102.253C164.455 101.525 163.507 101.542 162.657 102.372C160.019 104.947 157.543 107.655 155.956 111.053C155.747 111.501 155.477 111.662 155.005 111.542C154.761 111.481 154.5 111.491 154.251 111.447C152.68 111.169 151.851 110.195 152.07 108.809C152.206 107.987 152.388 107.174 152.616 106.373C153.322 103.829 154.67 101.602 156.105 99.4215C156.696 98.5214 156.54 97.5482 155.735 97.0151C154.862 96.4379 153.907 96.6252 153.298 97.5192C152.993 97.9564 152.745 98.4331 152.437 98.861C152.285 99.0773 152.084 99.3179 151.851 99.4154C149.624 100.299 147.417 101.243 145.15 101.986C142.437 102.884 139.623 103.442 136.773 103.646C135.375 103.741 133.988 103.7 132.678 103.109C131.963 102.786 131.459 102.305 131.459 101.433C131.459 100.562 131.881 99.9942 132.629 99.6362C132.947 99.4831 133.279 99.3637 133.622 99.2799C134.606 99.0514 135.602 98.8823 136.581 98.6341C145.067 96.5049 153.517 94.2067 161.77 91.2977C163.942 90.5362 165.959 90.5362 167.885 91.9404C173.397 95.9612 178.86 100.038 183.656 104.926L185.269 106.574C185.461 106.79 190.499 112.445 191.902 114.382C193.332 116.357 192.243 118.333 192.243 118.333V118.336Z" fill="#2563EB"/>
</svg>
