<svg width="218" height="213" viewBox="0 0 218 213" fill="none" xmlns="http://www.w3.org/2000/svg">
<g clip-path="url(#clip0_2283_11122)">
<path d="M214.428 43.4204H170.551C169.604 43.4231 168.697 43.8002 168.028 44.4693C167.358 45.1384 166.981 46.0451 166.979 46.9913V61.657C166.981 62.6031 167.359 63.5097 168.028 64.1787C168.697 64.8478 169.605 65.225 170.551 65.2279H199.622L196.589 72.4676L205.22 65.2279H214.428C215.374 65.2252 216.282 64.8481 216.951 64.179C217.621 63.5099 217.998 62.6032 218.001 61.657V46.9913C217.998 46.0451 217.621 45.1384 216.951 44.4693C216.282 43.8002 215.374 43.4231 214.428 43.4204Z" fill="#EAB308"/>
<path d="M183.857 55.7445C184.642 54.9598 184.642 53.6876 183.857 52.9029C183.072 52.1182 181.799 52.1182 181.014 52.9029C180.228 53.6876 180.228 54.9599 181.014 55.7446C181.799 56.5293 183.072 56.5292 183.857 55.7445Z" fill="white"/>
<path d="M194.437 54.779C194.692 53.699 194.023 52.6168 192.942 52.3618C191.861 52.1069 190.778 52.7758 190.523 53.8559C190.268 54.9359 190.937 56.0182 192.018 56.2731C193.099 56.528 194.182 55.8591 194.437 54.779Z" fill="white"/>
<path d="M203.966 55.745C204.751 54.9603 204.751 53.6881 203.966 52.9034C203.181 52.1187 201.908 52.1187 201.122 52.9034C200.337 53.6881 200.337 54.9603 201.122 55.745C201.908 56.5297 203.181 56.5297 203.966 55.745Z" fill="white"/>
<path d="M149.451 0H105.574C104.627 0.00270915 103.72 0.379709 103.051 1.04864C102.381 1.71757 102.004 2.62406 102.001 3.57007V18.2366C102.004 19.1826 102.381 20.0891 103.051 20.758C103.72 21.427 104.627 21.804 105.574 21.8067H126.231L125.903 29.0471L131.831 21.8067H149.457C150.403 21.804 151.31 21.427 151.98 20.758C152.649 20.0891 153.026 19.1826 153.029 18.2366V3.57007C153.026 2.62311 152.648 1.71579 151.978 1.0467C151.307 0.377609 150.399 0.00124954 149.451 0Z" fill="#93C5FD"/>
<path d="M119.409 11.3611C119.664 10.281 118.994 9.19881 117.914 8.94389C116.833 8.68897 115.75 9.35788 115.495 10.4379C115.24 11.518 115.909 12.6002 116.99 12.8551C118.071 13.11 119.154 12.4411 119.409 11.3611Z" fill="white"/>
<path d="M128.935 12.3246C129.72 11.5399 129.72 10.2677 128.935 9.48299C128.15 8.69829 126.876 8.69828 126.091 9.48299C125.306 10.2677 125.306 11.5399 126.091 12.3246C126.876 13.1093 128.15 13.1093 128.935 12.3246Z" fill="white"/>
<path d="M139.517 11.3616C139.772 10.2815 139.103 9.19928 138.022 8.94436C136.941 8.68944 135.858 9.35837 135.603 10.4384C135.348 11.5185 136.017 12.6007 137.098 12.8556C138.179 13.1105 139.262 12.4416 139.517 11.3616Z" fill="white"/>
<path d="M47.4496 43.4204H3.57331C2.62644 43.4231 1.71913 43.8002 1.04959 44.4693C0.380054 45.1384 0.00271101 46.0451 0 46.9913V61.657C0.00271101 62.6032 0.380054 63.5099 1.04959 64.179C1.71913 64.8481 2.62644 65.2252 3.57331 65.2279H8.83565L17.4674 72.4676L14.4331 65.2279H47.4496C48.3964 65.225 49.3035 64.8478 49.9728 64.1787C50.6422 63.5097 51.0194 62.6031 51.0221 61.657V46.9913C51.0196 46.0451 50.6425 45.1384 49.9731 44.4693C49.3036 43.8002 48.3964 43.4231 47.4496 43.4204Z" fill="#3B82F6"/>
<path d="M36.9873 55.7455C37.7726 54.9608 37.7725 53.6886 36.9873 52.9039C36.2021 52.1192 34.929 52.1192 34.1437 52.9039C33.3585 53.6886 33.3585 54.9608 34.1437 55.7455C34.929 56.5302 36.2021 56.5302 36.9873 55.7455Z" fill="white"/>
<path d="M26.9329 55.7455C27.7181 54.9608 27.7181 53.6886 26.9329 52.9039C26.1476 52.1192 24.8745 52.1192 24.0893 52.9039C23.304 53.6886 23.304 54.9608 24.0893 55.7455C24.8745 56.5302 26.1476 56.5302 26.9329 55.7455Z" fill="white"/>
<path d="M17.1399 55.4279C17.7474 54.499 17.4864 53.2538 16.5569 52.6466C15.6274 52.0395 14.3813 52.3003 13.7737 53.2292C13.1661 54.1581 13.4271 55.4033 14.3567 56.0105C15.2862 56.6177 16.5323 56.3568 17.1399 55.4279Z" fill="white"/>
<path d="M168.09 193.458H49.13C43.925 193.458 39.7056 197.675 39.7056 202.876C39.7056 208.077 43.925 212.294 49.13 212.294H168.09C173.295 212.294 177.514 208.077 177.514 202.876C177.514 197.675 173.295 193.458 168.09 193.458Z" fill="#CBD5E1"/>
<path d="M49.1299 213.001C43.5435 213.001 38.9988 208.458 38.9988 202.876C39.0017 200.191 40.07 197.618 41.9693 195.72C43.8687 193.822 46.4438 192.754 49.1299 192.751H168.09C170.776 192.754 173.351 193.822 175.25 195.72C177.15 197.618 178.218 200.191 178.221 202.876C178.221 208.458 173.676 213.001 168.09 213.001H49.1299Z" fill="#475569"/>
<path d="M49.13 211.588C46.8323 211.566 44.6362 210.638 43.0192 209.007C41.4022 207.376 40.4951 205.172 40.4951 202.876C40.4951 200.58 41.4022 198.377 43.0192 196.745C44.6362 195.114 46.8323 194.186 49.13 194.165H168.09C170.388 194.186 172.584 195.114 174.201 196.745C175.818 198.377 176.725 200.58 176.725 202.876C176.725 205.172 175.818 207.376 174.201 209.007C172.584 210.638 170.388 211.566 168.09 211.588H49.13Z" fill="url(#paint0_linear_2283_11122)"/>
<path d="M168.09 194.165H155.256V211.588H168.09C172.884 211.588 176.807 207.668 176.807 202.876C176.807 198.085 172.884 194.165 168.09 194.165Z" fill="#64748B"/>
<path d="M50.0832 197.907H49.5181V206.807H50.0832V197.907Z" fill="#94A3B8"/>
<path d="M164.853 204.062L160.558 202.01L170.016 198.902L166.906 208.354L164.853 204.062Z" fill="url(#paint1_linear_2283_11122)"/>
<path d="M164.853 204.062L170.016 198.902L166.906 208.354L164.853 204.062Z" fill="url(#paint2_linear_2283_11122)"/>
<path d="M23.0773 109.365L22.3264 109.856L27.0613 117.082L27.8122 116.591L23.0773 109.365Z" fill="#475569"/>
<path d="M25.591 106.757L24.8445 107.248L29.5797 114.433L30.3262 113.941L25.591 106.757Z" fill="#475569"/>
<path d="M28.4314 104.887L27.6848 105.378L32.42 112.563L33.1666 112.071L28.4314 104.887Z" fill="#475569"/>
<path d="M31.3581 102.959L30.6116 103.451L35.3468 110.635L36.0933 110.144L31.3581 102.959Z" fill="#475569"/>
<path d="M39.5843 103.909L38.7087 103.729L36.9733 112.155L37.8489 112.335L39.5843 103.909Z" fill="#475569"/>
<path d="M24.7966 111.12L23.2477 112.133C23.0277 112.277 22.9661 112.572 23.1102 112.792L24.3087 114.621C24.4527 114.841 24.7479 114.903 24.9679 114.759L26.5168 113.745C26.7368 113.601 26.7984 113.306 26.6543 113.087L25.4558 111.257C25.3118 111.037 25.0166 110.976 24.7966 111.12Z" fill="#94A3B8"/>
<path d="M32.7523 104.315L31.2731 105.289C31.0376 105.444 30.9724 105.76 31.1275 105.995L32.5626 108.173C32.7177 108.408 33.0344 108.473 33.2699 108.318L34.7491 107.345C34.9846 107.19 35.0498 106.873 34.8947 106.638L33.4596 104.461C33.3045 104.225 32.9878 104.16 32.7523 104.315Z" fill="#94A3B8"/>
<path d="M28.9462 100.771L29.5172 100.395C29.7507 100.242 30.0358 100.187 30.3097 100.243C30.5836 100.299 30.8239 100.462 30.9777 100.696L32.6358 103.211C32.6564 103.243 32.6638 103.281 32.6562 103.318C32.6486 103.354 32.6268 103.387 32.5954 103.407L30.4997 104.787C30.4684 104.807 30.4301 104.815 30.3934 104.807C30.3566 104.799 30.3244 104.778 30.3037 104.746L28.6461 102.231C28.5698 102.116 28.517 101.986 28.4908 101.85C28.4646 101.714 28.4655 101.575 28.4934 101.439C28.5212 101.303 28.5756 101.175 28.6533 101.06C28.731 100.945 28.8305 100.847 28.9462 100.771Z" fill="#94A3B8"/>
<path d="M22.8079 104.117L23.3789 103.741C23.4947 103.665 23.6245 103.612 23.7608 103.586C23.897 103.56 24.0371 103.561 24.1729 103.589C24.3088 103.618 24.4377 103.672 24.5524 103.75C24.667 103.828 24.7651 103.928 24.8411 104.044L26.8183 107.044C26.8389 107.075 26.8463 107.114 26.8387 107.15C26.8312 107.187 26.8093 107.219 26.778 107.24L24.6855 108.617C24.6542 108.638 24.6159 108.645 24.5792 108.638C24.5424 108.63 24.5102 108.608 24.4896 108.577L22.5124 105.577C22.3585 105.344 22.3038 105.059 22.3602 104.785C22.4165 104.511 22.5794 104.271 22.8129 104.117L22.8079 104.117Z" fill="#94A3B8"/>
<path d="M20.8394 107.219L21.4104 106.844C21.6439 106.69 21.929 106.635 22.2029 106.691C22.4768 106.748 22.7171 106.911 22.8709 107.144L23.7313 108.449C23.7519 108.481 23.7592 108.519 23.7517 108.556C23.7441 108.592 23.7223 108.625 23.6909 108.645L21.5945 110.025C21.5632 110.046 21.5249 110.053 21.4882 110.045C21.4514 110.038 21.4192 110.016 21.3986 109.985L20.5382 108.679C20.462 108.564 20.4093 108.434 20.3832 108.298C20.3572 108.162 20.3581 108.022 20.3861 107.887C20.4141 107.751 20.4685 107.623 20.5463 107.508C20.6241 107.393 20.7237 107.295 20.8394 107.219Z" fill="#94A3B8"/>
<path d="M24.7751 100.71L25.3461 100.334C25.4619 100.258 25.5915 100.206 25.7275 100.18C25.8636 100.154 26.0035 100.155 26.1391 100.183C26.2748 100.211 26.4035 100.265 26.5181 100.343C26.6327 100.421 26.7308 100.521 26.8068 100.636L29.7552 105.11C29.7759 105.141 29.7832 105.179 29.7756 105.216C29.7681 105.253 29.7462 105.285 29.7149 105.306L27.6205 106.684C27.5891 106.705 27.5509 106.712 27.5141 106.705C27.4774 106.697 27.4451 106.675 27.4245 106.644L24.4761 102.17C24.3223 101.937 24.2675 101.652 24.3239 101.378C24.3803 101.105 24.5431 100.865 24.7767 100.711L24.7751 100.71Z" fill="#94A3B8"/>
<path d="M39.2727 101.507L39.9424 101.645C40.2162 101.701 40.4565 101.864 40.6103 102.098C40.7642 102.331 40.8189 102.616 40.7625 102.889L40.1548 105.84C40.1473 105.877 40.1254 105.909 40.0941 105.93C40.0627 105.95 40.0245 105.958 39.9877 105.95L37.5298 105.445C37.493 105.437 37.4608 105.415 37.4402 105.384C37.4195 105.352 37.4122 105.314 37.4197 105.278L38.0274 102.327C38.0838 102.053 38.2467 101.813 38.4802 101.659C38.7137 101.506 38.9988 101.451 39.2727 101.507Z" fill="#94A3B8"/>
<path d="M29.6666 105.944L28.227 106.892C27.9805 107.054 27.9123 107.385 28.0746 107.631L29.668 110.049C29.8303 110.295 30.1616 110.363 30.4081 110.201L31.8477 109.254C32.0941 109.091 32.1623 108.76 32 108.514L30.4067 106.097C30.2444 105.85 29.913 105.782 29.6666 105.944Z" fill="#94A3B8"/>
<path d="M40.4366 119.775L33.7507 124.175C33.6778 124.223 33.6576 124.321 33.7056 124.394L34.3612 125.389C34.4092 125.462 34.5073 125.482 34.5802 125.434L41.266 121.033C41.339 120.985 41.3591 120.887 41.3111 120.815L40.6555 119.82C40.6075 119.747 40.5095 119.727 40.4366 119.775Z" fill="#64748B"/>
<path d="M27.1183 108.023L25.6391 108.996C25.4036 109.151 25.3384 109.468 25.4935 109.703L26.9286 111.88C27.0837 112.116 27.4003 112.181 27.6358 112.026L29.1151 111.052C29.3506 110.897 29.4157 110.581 29.2606 110.345L27.8255 108.168C27.6704 107.933 27.3538 107.868 27.1183 108.023Z" fill="#94A3B8"/>
<path d="M42.3335 117.421L38.5563 111.691C38.543 111.671 38.5384 111.646 38.5433 111.623C38.5481 111.599 38.5622 111.578 38.5823 111.565L40.4002 110.365C40.4999 110.302 40.5877 110.222 40.6595 110.128C40.7781 109.969 40.845 109.778 40.8511 109.58C40.8571 109.383 40.8021 109.188 40.6934 109.022L39.7521 107.595C39.6627 107.458 39.5426 107.344 39.4013 107.262C39.2599 107.179 39.1013 107.131 38.938 107.121L37.1549 107.015C36.9275 107.001 36.7017 107.061 36.5115 107.187L35.2951 107.988C35.2613 108.01 35.2288 108.035 35.1979 108.062C35.1924 108.066 35.1863 108.07 35.1798 108.074C35.1426 108.092 35.1064 108.112 35.0715 108.134L24.991 114.771C24.7826 114.904 24.635 115.113 24.5803 115.353C24.5257 115.594 24.5685 115.846 24.6993 116.055C24.701 116.058 24.7031 116.061 24.7057 116.064L31.4642 124.578C31.5333 124.679 31.6218 124.766 31.7244 124.833C31.8271 124.9 31.942 124.946 32.0625 124.969C32.183 124.992 32.3068 124.99 32.4268 124.965C32.5469 124.94 32.6608 124.891 32.762 124.822L42.0482 118.71C42.2568 118.576 42.404 118.366 42.4575 118.124C42.511 117.883 42.4664 117.63 42.3335 117.421Z" fill="#94A3B8"/>
<path d="M25.9371 117.634L25.8066 117.437L27.7478 116.159L30.7402 116.854L31.7985 116.156L31.9289 116.354L30.7852 117.106L27.7937 116.412L25.9371 117.634Z" fill="#64748B"/>
<path d="M32.4126 115.863C32.4673 115.946 32.4962 116.043 32.4956 116.143C32.495 116.242 32.4649 116.339 32.4091 116.421C32.3534 116.504 32.2745 116.567 32.1824 116.605C32.0903 116.642 31.9891 116.652 31.8918 116.632C31.7944 116.612 31.7051 116.563 31.6352 116.493C31.5654 116.422 31.5181 116.332 31.4993 116.234C31.4805 116.137 31.4911 116.036 31.5297 115.944C31.5683 115.853 31.6333 115.775 31.7163 115.72C31.8276 115.647 31.9635 115.621 32.0941 115.647C32.2247 115.674 32.3392 115.752 32.4126 115.863Z" fill="#64748B"/>
<path d="M34.8391 113.203C34.8938 113.286 34.9227 113.383 34.9221 113.483C34.9215 113.582 34.8914 113.679 34.8356 113.761C34.7799 113.843 34.701 113.907 34.6089 113.945C34.5168 113.982 34.4157 113.991 34.3183 113.971C34.2209 113.951 34.1316 113.903 34.0618 113.832C33.9919 113.762 33.9446 113.672 33.9258 113.574C33.907 113.477 33.9176 113.376 33.9562 113.284C33.9949 113.193 34.0598 113.115 34.1428 113.06C34.2541 112.987 34.39 112.961 34.5206 112.987C34.6512 113.014 34.7658 113.092 34.8391 113.203Z" fill="#64748B"/>
<path d="M32.0602 120.506L29.0679 119.812L28.1463 120.418L28.0159 120.221L29.0228 119.558L32.0144 120.253L33.0735 119.556L33.2039 119.753L32.0602 120.506Z" fill="#64748B"/>
<path d="M33.6836 119.262C33.7383 119.345 33.7672 119.443 33.7666 119.542C33.766 119.641 33.7359 119.738 33.6801 119.821C33.6244 119.903 33.5455 119.967 33.4534 120.004C33.3613 120.042 33.2601 120.051 33.1627 120.031C33.0654 120.011 32.9761 119.963 32.9062 119.892C32.8364 119.821 32.7891 119.731 32.7703 119.634C32.7515 119.536 32.7621 119.435 32.8007 119.344C32.8393 119.252 32.9043 119.174 32.9873 119.12C33.0986 119.046 33.2345 119.02 33.3651 119.047C33.4957 119.074 33.6102 119.151 33.6836 119.262Z" fill="#64748B"/>
<path d="M35.8349 117.038L35.7053 116.841L36.7636 116.144L37.3058 113.122L38.836 112.115L38.9664 112.313L37.5208 113.264L36.9794 116.286L35.8349 117.038Z" fill="#64748B"/>
<path d="M35.1955 117.285C35.2505 117.368 35.3287 117.432 35.4204 117.471C35.5121 117.509 35.6131 117.519 35.7107 117.5C35.8082 117.481 35.898 117.434 35.9685 117.364C36.0391 117.294 36.0873 117.204 36.107 117.107C36.1268 117.01 36.1172 116.909 36.0796 116.817C36.0419 116.725 35.9778 116.646 35.8954 116.591C35.813 116.535 35.716 116.505 35.6166 116.505C35.5172 116.504 35.4199 116.533 35.337 116.588C35.2817 116.625 35.2342 116.671 35.1972 116.726C35.1601 116.781 35.1342 116.842 35.1211 116.907C35.1079 116.972 35.1077 117.039 35.1205 117.103C35.1333 117.168 35.1588 117.23 35.1955 117.285Z" fill="#64748B"/>
<path d="M38.4576 119.551L38.3271 119.353L39.3863 118.657L39.9285 115.636L40.7844 115.072L40.9148 115.269L40.1434 115.777L39.6012 118.798L38.4576 119.551Z" fill="#64748B"/>
<path d="M37.8173 119.797C37.8721 119.88 37.9502 119.945 38.0418 119.984C38.1334 120.022 38.2344 120.033 38.332 120.014C38.4297 119.995 38.5195 119.948 38.5903 119.878C38.661 119.809 38.7095 119.719 38.7295 119.622C38.7495 119.525 38.7401 119.424 38.7027 119.332C38.6652 119.24 38.6013 119.161 38.5189 119.105C38.4366 119.049 38.3396 119.019 38.2402 119.019C38.1408 119.018 38.0434 119.047 37.9604 119.101C37.8491 119.175 37.7715 119.289 37.7447 119.42C37.7178 119.55 37.744 119.686 37.8173 119.797Z" fill="#64748B"/>
<path d="M34.4488 113.685L32.9399 111.395L36.171 109.268L35.3182 107.974L35.5158 107.844L36.499 109.336L33.2672 111.463L34.6464 113.554L34.4488 113.685Z" fill="#64748B"/>
<path d="M49.0846 140.748L49.5117 148.106L66.8314 147.102L66.4043 139.744L49.0846 140.748Z" fill="#64748B"/>
<path d="M74.1922 158.463C81.042 158.463 86.5948 152.914 86.5948 146.069C86.5948 139.224 81.042 133.675 74.1922 133.675C67.3424 133.675 61.7896 139.224 61.7896 146.069C61.7896 152.914 67.3424 158.463 74.1922 158.463Z" fill="#94A3B8"/>
<path d="M60.7123 141.145C59.9448 143.665 57.9854 146.395 55.0452 148.314C52.1208 150.256 48.8352 150.978 46.2159 150.688C43.5768 150.408 41.6025 149.118 40.8311 147.245C40.6835 146.893 40.5368 146.541 40.3908 146.188C40.3355 146.057 40.281 145.928 40.2272 145.793C40.2138 145.763 40.2011 145.733 40.1885 145.701C40.1332 145.571 40.0786 145.44 40.0257 145.31C39.2147 143.37 38.4046 141.43 37.5952 139.49C37.5415 139.358 37.4854 139.228 37.4324 139.095C37.419 139.065 37.4064 139.034 37.3937 139.003C37.3392 138.872 37.2838 138.742 37.2301 138.608C36.4397 136.72 35.6517 134.832 34.8661 132.944C34.8123 132.814 34.7578 132.684 34.7033 132.549C34.6898 132.519 34.6772 132.488 34.6645 132.458L34.5009 132.067L34.4669 131.984C33.686 130.093 33.8228 128.082 34.4322 126.326C35.0589 124.566 36.1575 123.059 37.7241 122.024C39.1191 121.11 40.7101 120.681 42.3581 120.681C42.5646 120.681 42.7717 120.688 42.9793 120.701C44.8327 120.835 46.736 121.504 48.1666 122.966C48.293 123.097 48.4203 123.228 48.5475 123.361L48.8352 123.658L48.9143 123.737C49.0091 123.837 49.1055 123.935 49.2012 124.034L53.4582 128.422L53.7443 128.718C53.7704 128.744 53.7957 128.771 53.8233 128.797L54.1102 129.092C55.5856 130.615 57.0625 132.138 58.5411 133.66C58.6359 133.759 58.7316 133.856 58.8256 133.954L58.9047 134.033C58.9995 134.131 59.0951 134.228 59.1892 134.326L59.6777 134.83C61.0916 136.289 61.4987 138.611 60.7123 141.145Z" fill="#2563EB"/>
<path d="M48.9117 123.746C44.6073 127.661 36.7399 131.579 34.7031 132.562C34.6896 132.532 34.677 132.5 34.6643 132.47L34.5007 132.079C36.5557 131.086 44.3164 127.217 48.5473 123.371L48.835 123.668L48.9117 123.746Z" fill="#2563EB"/>
<path d="M53.8193 128.806C49.0999 133.1 40.8665 137.399 37.4323 139.101C37.4189 139.071 37.4062 139.04 37.3936 139.01C37.3391 138.879 37.2837 138.748 37.23 138.615C40.6571 136.916 48.7996 132.662 53.4557 128.426L53.7418 128.722C53.7679 128.752 53.7932 128.78 53.8193 128.806Z" fill="#2563EB"/>
<path d="M58.9015 134.043C53.5696 139.117 43.3049 144.3 40.2272 145.795C40.2137 145.765 40.2011 145.735 40.1885 145.703C40.1331 145.574 40.0786 145.442 40.0256 145.312C43.1136 143.811 53.2756 138.677 58.5371 133.667C58.632 133.766 58.7276 133.863 58.8216 133.961L58.9015 134.043Z" fill="#2563EB"/>
<path opacity="0.31" d="M49.1988 124.043C44.8849 128.009 36.8515 131.997 34.8661 132.953C34.8124 132.823 34.7578 132.693 34.7033 132.558C34.6898 132.528 34.6772 132.496 34.6646 132.466C36.6697 131.501 44.5965 127.56 48.8353 123.664L48.9143 123.743C49.0107 123.845 49.1032 123.943 49.1988 124.043Z" fill="#2563EB"/>
<path opacity="0.31" d="M54.1061 129.102C49.3828 133.437 41.0253 137.794 37.5951 139.494C37.5413 139.362 37.4852 139.232 37.4323 139.099C37.4188 139.069 37.4062 139.038 37.3936 139.007C40.8183 137.31 49.0825 132.998 53.7418 128.724C53.7678 128.75 53.7931 128.777 53.8208 128.803L54.1061 129.102Z" fill="#2563EB"/>
<path opacity="0.31" d="M59.186 134.339C53.8541 139.461 43.433 144.711 40.3908 146.187C40.3355 146.056 40.281 145.926 40.2272 145.792C40.2138 145.761 40.2011 145.731 40.1885 145.699C43.2409 144.222 53.5625 139.02 58.8217 133.965L58.9007 134.044C58.9963 134.143 59.092 134.24 59.186 134.339Z" fill="#2563EB"/>
<path opacity="0.16" d="M75.8488 134.387C75.8488 134.387 66.075 134.6 63.4976 142.406C63.4976 142.406 67.3989 136.52 76.3633 135.923L75.8488 134.387Z" fill="white"/>
<path d="M189.739 115.827L190.485 116.318L195.22 109.134L194.474 108.642L189.739 115.827Z" fill="#475569"/>
<path d="M186.87 113.939L187.616 114.43L192.351 107.246L191.605 106.754L186.87 113.939Z" fill="#475569"/>
<path d="M184.029 112.071L184.776 112.562L189.511 105.377L188.765 104.886L184.029 112.071Z" fill="#475569"/>
<path d="M181.106 110.142L181.853 110.634L186.588 103.449L185.841 102.958L181.106 110.142Z" fill="#475569"/>
<path d="M179.355 112.345L180.23 112.165L178.495 103.739L177.619 103.919L179.355 112.345Z" fill="#475569"/>
<path d="M191.037 112.996L192.577 114.009C192.796 114.153 193.09 114.093 193.234 113.874L194.432 112.056C194.576 111.837 194.516 111.543 194.297 111.399L192.757 110.386C192.538 110.242 192.244 110.302 192.1 110.521L190.902 112.339C190.758 112.558 190.818 112.852 191.037 112.996Z" fill="#94A3B8"/>
<path d="M182.449 107.342L183.929 108.316C184.164 108.471 184.481 108.406 184.636 108.171L186.071 105.993C186.226 105.758 186.161 105.441 185.925 105.286L184.446 104.313C184.211 104.158 183.894 104.223 183.739 104.458L182.304 106.636C182.149 106.871 182.214 107.187 182.449 107.342Z" fill="#94A3B8"/>
<path d="M186.697 104.785L184.602 103.406C184.57 103.385 184.548 103.353 184.541 103.316C184.533 103.279 184.541 103.241 184.561 103.21L186.219 100.694C186.373 100.461 186.613 100.298 186.887 100.242C187.161 100.185 187.446 100.24 187.68 100.394L188.251 100.769C188.366 100.846 188.466 100.944 188.544 101.058C188.621 101.173 188.676 101.301 188.704 101.437C188.731 101.572 188.732 101.712 188.706 101.848C188.68 101.984 188.628 102.113 188.551 102.229L186.893 104.745C186.873 104.776 186.84 104.798 186.804 104.805C186.767 104.813 186.729 104.806 186.697 104.785Z" fill="#94A3B8"/>
<path d="M192.518 108.616L190.422 107.237C190.391 107.216 190.369 107.184 190.361 107.147C190.354 107.111 190.361 107.073 190.382 107.041L192.359 104.041C192.513 103.808 192.753 103.645 193.027 103.589C193.301 103.532 193.586 103.587 193.819 103.741L194.388 104.115C194.504 104.191 194.604 104.29 194.681 104.404C194.759 104.519 194.813 104.647 194.841 104.783C194.869 104.918 194.87 105.058 194.844 105.194C194.818 105.33 194.765 105.459 194.689 105.575L192.712 108.575C192.691 108.606 192.659 108.628 192.622 108.636C192.585 108.643 192.547 108.636 192.516 108.615L192.518 108.616Z" fill="#94A3B8"/>
<path d="M195.598 110.03L193.503 108.65C193.471 108.63 193.449 108.597 193.442 108.561C193.434 108.524 193.442 108.486 193.462 108.454L194.323 107.149C194.399 107.034 194.497 106.934 194.612 106.856C194.726 106.779 194.855 106.724 194.991 106.697C195.126 106.669 195.266 106.668 195.402 106.694C195.538 106.72 195.668 106.773 195.783 106.849L196.354 107.224C196.588 107.378 196.751 107.618 196.807 107.892C196.863 108.166 196.809 108.451 196.655 108.684L195.794 109.989C195.774 110.021 195.741 110.043 195.705 110.05C195.668 110.058 195.63 110.05 195.598 110.03Z" fill="#94A3B8"/>
<path d="M189.579 106.682L187.484 105.302C187.452 105.282 187.43 105.249 187.423 105.213C187.415 105.176 187.423 105.138 187.443 105.106L190.392 100.633C190.546 100.399 190.786 100.237 191.06 100.18C191.334 100.124 191.619 100.179 191.852 100.332L192.423 100.708C192.657 100.862 192.82 101.102 192.876 101.376C192.932 101.649 192.878 101.934 192.724 102.168L189.775 106.641C189.755 106.673 189.722 106.694 189.686 106.702C189.649 106.709 189.611 106.702 189.579 106.682Z" fill="#94A3B8"/>
<path d="M179.673 105.457L177.216 105.962C177.179 105.97 177.14 105.962 177.109 105.942C177.078 105.921 177.056 105.889 177.048 105.852L176.441 102.902C176.384 102.628 176.439 102.343 176.593 102.11C176.747 101.876 176.987 101.714 177.261 101.657L177.931 101.52C178.204 101.463 178.489 101.518 178.723 101.672C178.957 101.825 179.119 102.065 179.176 102.339L179.783 105.29C179.791 105.326 179.784 105.365 179.763 105.396C179.742 105.427 179.71 105.449 179.673 105.457Z" fill="#94A3B8"/>
<path d="M185.349 109.252L186.789 110.2C187.035 110.362 187.367 110.294 187.529 110.048L189.122 107.63C189.285 107.384 189.216 107.053 188.97 106.891L187.53 105.943C187.284 105.781 186.953 105.849 186.79 106.095L185.197 108.513C185.035 108.759 185.103 109.09 185.349 109.252Z" fill="#94A3B8"/>
<path d="M175.931 121.03L182.617 125.431C182.69 125.479 182.788 125.459 182.836 125.386L183.492 124.391C183.54 124.318 183.519 124.22 183.447 124.172L176.761 119.772C176.688 119.724 176.59 119.744 176.542 119.817L175.886 120.811C175.838 120.884 175.858 120.982 175.931 121.03Z" fill="#64748B"/>
<path d="M188.082 111.05L189.561 112.024C189.796 112.179 190.113 112.114 190.268 111.879L191.703 109.701C191.858 109.466 191.793 109.149 191.558 108.994L190.078 108.021C189.843 107.866 189.526 107.931 189.371 108.166L187.936 110.344C187.781 110.579 187.846 110.895 188.082 111.05Z" fill="#94A3B8"/>
<path d="M174.886 117.422L178.664 111.691C178.677 111.671 178.681 111.646 178.677 111.623C178.672 111.599 178.658 111.578 178.637 111.565L176.82 110.365C176.72 110.302 176.632 110.222 176.56 110.128C176.441 109.97 176.374 109.778 176.368 109.581C176.363 109.383 176.418 109.188 176.526 109.022L177.467 107.595C177.556 107.458 177.677 107.344 177.818 107.262C177.96 107.18 178.118 107.132 178.282 107.121L180.066 107.012C180.294 106.998 180.519 107.058 180.709 107.184L181.926 107.985C181.96 108.007 181.993 108.032 182.023 108.059C182.029 108.064 182.035 108.068 182.042 108.071C182.079 108.089 182.114 108.109 182.149 108.132L192.227 114.772C192.436 114.904 192.583 115.113 192.638 115.353C192.693 115.594 192.65 115.846 192.519 116.055C192.517 116.058 192.515 116.061 192.513 116.064L185.757 124.578C185.688 124.679 185.599 124.765 185.497 124.832C185.394 124.9 185.279 124.946 185.158 124.968C185.038 124.991 184.914 124.99 184.794 124.965C184.674 124.939 184.56 124.891 184.459 124.822L175.173 118.709C174.965 118.576 174.817 118.366 174.763 118.125C174.71 117.883 174.754 117.63 174.886 117.422Z" fill="#94A3B8"/>
<path d="M191.282 117.634L191.413 117.437L189.471 116.159L186.48 116.854L185.421 116.156L185.29 116.354L186.434 117.106L189.426 116.412L191.282 117.634Z" fill="#64748B"/>
<path d="M184.811 115.863C184.757 115.946 184.728 116.044 184.729 116.143C184.73 116.242 184.76 116.339 184.816 116.421C184.872 116.503 184.951 116.567 185.043 116.604C185.135 116.641 185.236 116.651 185.333 116.631C185.43 116.611 185.52 116.562 185.589 116.492C185.659 116.421 185.706 116.331 185.725 116.234C185.744 116.136 185.734 116.035 185.695 115.944C185.657 115.852 185.592 115.774 185.509 115.72C185.454 115.683 185.392 115.658 185.327 115.645C185.262 115.633 185.195 115.633 185.13 115.647C185.065 115.66 185.004 115.686 184.949 115.723C184.894 115.76 184.847 115.808 184.811 115.863Z" fill="#64748B"/>
<path d="M182.381 113.203C182.326 113.286 182.297 113.383 182.298 113.483C182.298 113.582 182.329 113.679 182.384 113.761C182.44 113.843 182.519 113.907 182.611 113.945C182.703 113.982 182.804 113.991 182.902 113.971C182.999 113.951 183.088 113.903 183.158 113.832C183.228 113.762 183.275 113.672 183.294 113.574C183.313 113.477 183.302 113.376 183.264 113.284C183.225 113.193 183.16 113.115 183.077 113.06C182.966 112.987 182.83 112.961 182.699 112.987C182.569 113.014 182.454 113.092 182.381 113.203Z" fill="#64748B"/>
<path d="M185.159 120.506L188.151 119.812L189.073 120.418L189.203 120.221L188.196 119.558L185.205 120.253L184.146 119.556L184.015 119.753L185.159 120.506Z" fill="#64748B"/>
<path d="M183.533 119.262C183.478 119.345 183.45 119.443 183.45 119.542C183.451 119.641 183.481 119.738 183.537 119.821C183.592 119.903 183.671 119.967 183.763 120.004C183.856 120.042 183.957 120.051 184.054 120.031C184.151 120.011 184.241 119.963 184.311 119.892C184.38 119.821 184.428 119.731 184.447 119.634C184.465 119.536 184.455 119.435 184.416 119.344C184.377 119.252 184.313 119.174 184.23 119.12C184.118 119.046 183.982 119.02 183.852 119.047C183.721 119.074 183.607 119.151 183.533 119.262Z" fill="#64748B"/>
<path d="M181.384 117.038L181.515 116.841L180.455 116.144L179.913 113.122L178.383 112.115L178.253 112.313L179.698 113.264L180.24 116.286L181.384 117.038Z" fill="#64748B"/>
<path d="M182.024 117.285C181.969 117.368 181.891 117.432 181.8 117.471C181.708 117.51 181.607 117.52 181.51 117.501C181.412 117.483 181.322 117.435 181.251 117.366C181.181 117.296 181.132 117.207 181.112 117.109C181.092 117.012 181.101 116.911 181.139 116.819C181.176 116.727 181.24 116.648 181.323 116.592C181.405 116.537 181.502 116.506 181.601 116.506C181.701 116.505 181.798 116.534 181.881 116.589C181.936 116.625 181.984 116.672 182.021 116.726C182.058 116.781 182.084 116.842 182.097 116.907C182.11 116.972 182.111 117.038 182.098 117.103C182.086 117.168 182.061 117.23 182.024 117.285Z" fill="#64748B"/>
<path d="M178.761 119.551L178.892 119.353L177.833 118.657L177.291 115.636L176.435 115.072L176.304 115.269L177.076 115.777L177.618 118.798L178.761 119.551Z" fill="#64748B"/>
<path d="M179.403 119.797C179.348 119.88 179.27 119.945 179.178 119.984C179.087 120.022 178.986 120.033 178.888 120.014C178.79 119.995 178.7 119.948 178.63 119.878C178.559 119.809 178.511 119.719 178.491 119.622C178.471 119.525 178.48 119.424 178.517 119.332C178.555 119.24 178.619 119.161 178.701 119.105C178.783 119.049 178.88 119.019 178.98 119.019C179.079 119.018 179.177 119.047 179.26 119.101C179.371 119.175 179.448 119.289 179.475 119.42C179.502 119.55 179.476 119.686 179.403 119.797Z" fill="#64748B"/>
<path d="M182.77 113.685L184.279 111.395L181.048 109.268L181.901 107.974L181.703 107.844L180.72 109.336L183.952 111.463L182.573 113.554L182.77 113.685Z" fill="#64748B"/>
<path d="M150.819 139.764L150.392 147.122L167.712 148.126L168.139 140.768L150.819 139.764Z" fill="#64748B"/>
<path d="M143.027 158.463C149.877 158.463 155.43 152.914 155.43 146.069C155.43 139.224 149.877 133.675 143.027 133.675C136.177 133.675 130.624 139.224 130.624 146.069C130.624 152.914 136.177 158.463 143.027 158.463Z" fill="#94A3B8"/>
<path d="M156.507 141.145C157.275 143.665 159.235 146.395 162.175 148.314C165.099 150.256 168.385 150.978 171.003 150.688C173.643 150.408 175.618 149.118 176.389 147.245C176.536 146.893 176.683 146.541 176.829 146.188C176.885 146.057 176.939 145.928 176.993 145.793C177.006 145.763 177.019 145.733 177.032 145.701C177.087 145.571 177.141 145.44 177.194 145.31C178.005 143.37 178.815 141.43 179.624 139.49C179.679 139.358 179.734 139.228 179.788 139.095C179.801 139.065 179.814 139.034 179.826 139.003C179.881 138.872 179.936 138.742 179.989 138.608C180.78 136.72 181.568 134.832 182.353 132.944L182.517 132.549C182.53 132.519 182.543 132.488 182.556 132.458C182.61 132.327 182.665 132.197 182.718 132.067L182.753 131.984C183.534 130.093 183.396 128.082 182.788 126.326C182.161 124.566 181.062 123.059 179.496 122.024C178.101 121.11 176.51 120.681 174.862 120.681C174.656 120.681 174.449 120.688 174.24 120.701C172.387 120.835 170.483 121.504 169.053 122.966L168.673 123.361C168.577 123.46 168.48 123.559 168.385 123.658L168.306 123.737L168.019 124.034L163.762 128.422C163.667 128.52 163.571 128.619 163.475 128.718C163.449 128.744 163.424 128.771 163.396 128.797L163.11 129.092C161.634 130.615 160.157 132.138 158.679 133.66C158.583 133.759 158.488 133.856 158.394 133.954C158.367 133.981 158.341 134.008 158.315 134.033C158.221 134.131 158.125 134.228 158.031 134.326L157.542 134.83C156.128 136.289 155.722 138.611 156.507 141.145Z" fill="#2563EB"/>
<path d="M168.308 123.746C172.612 127.661 180.48 131.579 182.517 132.562C182.53 132.532 182.543 132.5 182.555 132.47C182.61 132.339 182.665 132.21 182.718 132.079C180.663 131.086 172.903 127.217 168.672 123.371C168.577 123.469 168.48 123.568 168.385 123.668L168.308 123.746Z" fill="#2563EB"/>
<path d="M163.4 128.806C168.12 133.1 176.353 137.399 179.788 139.101C179.801 139.071 179.814 139.04 179.826 139.01C179.881 138.879 179.936 138.748 179.989 138.615C176.562 136.916 168.42 132.662 163.764 128.426C163.669 128.525 163.573 128.623 163.477 128.722C163.451 128.752 163.426 128.78 163.4 128.806Z" fill="#2563EB"/>
<path d="M158.32 134.043C163.652 139.117 173.917 144.3 176.994 145.795C177.008 145.765 177.02 145.735 177.033 145.703C177.088 145.574 177.143 145.442 177.196 145.312C174.108 143.811 163.946 138.677 158.684 133.667C158.589 133.766 158.494 133.863 158.4 133.961C158.371 133.991 158.345 134.017 158.32 134.043Z" fill="#2563EB"/>
<path opacity="0.31" d="M168.021 124.043C172.335 128.009 180.369 131.997 182.353 132.953L182.517 132.558C182.53 132.528 182.543 132.496 182.556 132.466C180.55 131.501 172.624 127.56 168.385 123.664L168.306 123.743L168.021 124.043Z" fill="#2563EB"/>
<path opacity="0.31" d="M163.114 129.102C167.837 133.437 176.194 137.794 179.624 139.494C179.679 139.362 179.734 139.232 179.788 139.099C179.801 139.069 179.814 139.038 179.826 139.007C176.402 137.31 168.137 132.998 163.477 128.724C163.451 128.75 163.426 128.777 163.398 128.803L163.114 129.102Z" fill="#2563EB"/>
<path opacity="0.31" d="M158.034 134.339C163.366 139.461 173.787 144.711 176.829 146.187C176.884 146.056 176.939 145.926 176.993 145.792C177.006 145.761 177.019 145.731 177.031 145.699C173.977 144.222 163.657 139.02 158.399 133.965C158.371 133.992 158.345 134.019 158.32 134.044C158.224 134.143 158.128 134.24 158.034 134.339Z" fill="#2563EB"/>
<path opacity="0.16" d="M141.371 134.387C141.371 134.387 151.145 134.6 153.722 142.406C153.722 142.406 149.821 136.52 140.857 135.923L141.371 134.387Z" fill="white"/>
<path d="M145.292 151.369C145.282 151.554 145.27 151.741 145.256 151.926C145.248 152.034 145.24 152.141 145.23 152.248C145.215 152.432 145.198 152.616 145.179 152.801C145.118 153.38 145.042 153.959 144.948 154.538C143.446 163.818 138.215 171.53 131.684 176.993C125.078 182.443 117.173 185.653 108.611 185.665C100.048 185.653 92.1417 182.446 85.5365 176.993C79.0056 171.53 73.7749 163.819 72.2732 154.538C72.1815 153.973 72.1061 153.408 72.0471 152.843C72.0276 152.658 72.0097 152.473 71.9934 152.291C71.9847 152.186 71.976 152.083 71.9681 151.979C71.9539 151.792 71.9412 151.607 71.9309 151.42C71.6453 146.567 72.5791 141.719 74.6475 137.318C76.0531 134.337 77.9339 131.604 80.2165 129.226C86.7411 122.319 97.035 117.662 108.611 117.694C120.186 117.66 130.481 122.317 137.005 129.226C139.649 131.976 141.749 135.202 143.194 138.731C144.822 142.736 145.539 147.053 145.292 151.369Z" fill="url(#paint3_radial_2283_11122)"/>
<path opacity="0.31" d="M145.254 151.927C145.246 152.034 145.238 152.141 145.228 152.248C145.212 152.432 145.195 152.616 145.176 152.801C144.964 152.739 144.717 152.672 144.438 152.602C143.173 152.286 141.882 152.09 140.58 152.016C136.512 151.798 133.186 152.885 130.692 155.248C129.768 156.123 128.83 157.223 127.838 158.384C125.88 160.674 123.661 163.276 120.615 165.319C117.149 167.644 113.265 168.799 108.745 168.843H108.471C98.7304 168.743 93.9431 163.303 90.09 158.923C88.8681 157.534 87.7133 156.222 86.5475 155.268C83.2904 152.606 79.2863 152.152 76.5018 152.24C74.9996 152.29 73.5063 152.493 72.0449 152.844C72.0254 152.658 72.0074 152.474 71.9911 152.291C71.9824 152.187 71.9737 152.083 71.9658 151.979C73.4443 151.633 74.9533 151.433 76.471 151.384C80.6742 151.249 84.3471 152.365 87.0881 154.606C88.3085 155.604 89.4861 156.942 90.7318 158.358C94.4885 162.628 99.1596 167.938 108.606 167.988C118.548 167.936 123.333 162.334 127.18 157.828C128.188 156.648 129.139 155.533 130.097 154.627C132.736 152.127 136.386 150.928 140.648 151.161C142.207 151.249 143.751 151.506 145.254 151.927Z" fill="white"/>
<path d="M162.979 97.4925C168.657 94.792 171.426 88.3674 169.764 82.5068L147.063 93.3032C150.566 98.2886 157.301 100.193 162.979 97.4925Z" fill="#2563EB"/>
<path d="M149.108 68.3645C143.429 71.0658 140.661 77.4896 142.323 83.3502L165.024 72.5538C161.521 67.5684 154.786 65.6641 149.108 68.3645Z" fill="#2563EB"/>
<path d="M166.1 74.394C165.793 73.7518 165.433 73.1362 165.024 72.5537L142.323 83.35C142.517 84.0348 142.768 84.702 143.074 85.3444L145.988 91.4625C146.294 92.1049 146.653 92.7205 147.063 93.3028L169.764 82.5065C169.57 81.8219 169.319 81.1548 169.013 80.5121L166.1 74.394Z" fill="#2563EB"/>
<path d="M169.764 82.5065C169.57 81.822 169.319 81.1548 169.013 80.5122L166.1 74.3941C165.793 73.7518 165.433 73.1363 165.024 72.5538C161.521 67.5683 154.786 65.664 149.108 68.3676C143.429 71.0689 140.661 77.4926 142.323 83.3533C142.517 84.038 142.768 84.7052 143.074 85.3476L145.988 91.4657C146.294 92.1081 146.653 92.7237 147.063 93.306C150.566 98.2915 157.3 100.196 162.978 97.4922C168.657 94.7885 171.426 88.3672 169.764 82.5065Z" fill="#2563EB"/>
<path opacity="0.16" d="M163.768 73.7338C164.183 74.3246 164.548 74.9489 164.859 75.6002L168.079 82.362C168.389 83.0142 168.644 83.6911 168.841 84.3856C168.994 84.9263 169.111 85.4764 169.192 86.0324C169.207 84.2788 168.823 82.5447 168.068 80.9616L165.155 74.8435C164.201 72.8424 162.697 71.1536 160.819 69.974C158.941 68.7944 156.766 68.1726 154.548 68.1812C154.153 68.1812 153.768 68.2018 153.382 68.2397C155.423 68.2753 157.428 68.7913 159.232 69.7459C161.037 70.7005 162.591 72.0667 163.768 73.7338Z" fill="#2563EB"/>
<path d="M54.2406 97.4925C48.5625 94.792 45.7938 88.3674 47.456 82.5068L70.1573 93.3032C66.6543 98.2886 59.9179 100.193 54.2406 97.4925Z" fill="#2563EB"/>
<path d="M68.1117 68.3645C73.7906 71.0658 76.5593 77.4896 74.8971 83.3502L52.1951 72.5538C55.6988 67.5684 62.4328 65.6641 68.1117 68.3645Z" fill="#2563EB"/>
<path d="M51.1203 74.394C51.4267 73.7518 51.7863 73.1362 52.1952 72.5537L74.8972 83.35C74.7034 84.0348 74.4519 84.702 74.1456 85.3444L71.2322 91.4625C70.9261 92.1049 70.5665 92.7205 70.1573 93.3028L47.4561 82.5065C47.6501 81.8219 47.9013 81.1548 48.2069 80.5121L51.1203 74.394Z" fill="#2563EB"/>
<path d="M68.1116 68.3646C62.4327 65.6642 55.6987 67.5685 52.1949 72.5508C51.786 73.1333 51.4265 73.7488 51.12 74.3911L48.2067 80.5092C47.901 81.1518 47.6499 81.819 47.4558 82.5035C45.796 88.3642 48.5624 94.7887 54.2404 97.4892C59.9193 100.19 66.6541 98.2853 70.1571 93.303C70.5663 92.7207 70.9259 92.1051 71.232 91.4627L74.1454 85.3446C74.4517 84.7022 74.7032 84.035 74.897 83.3503C76.5592 77.4912 73.7905 71.0659 68.1116 68.3646Z" fill="#2563EB"/>
<path opacity="0.16" d="M53.4519 73.7338C53.037 74.3246 52.6722 74.9489 52.3611 75.6002L49.1411 82.362C48.8309 83.014 48.576 83.6909 48.3792 84.3856C48.2255 84.9261 48.1083 85.4762 48.0283 86.0324C48.013 84.2788 48.3973 82.5447 49.1522 80.9616L52.0655 74.8435C53.0194 72.8424 54.523 71.1536 56.4009 69.974C58.2788 68.7944 60.4536 68.1726 62.6716 68.1812C63.0668 68.1812 63.4525 68.2018 63.8374 68.2397C61.7961 68.2754 59.7918 68.7914 57.9874 69.746C56.1829 70.7006 54.6291 72.0668 53.4519 73.7338Z" fill="#2563EB"/>
<path d="M108.61 52.1404V36" stroke="#64748B" stroke-width="2" stroke-miterlimit="10"/>
<path d="M164.819 120.957C159.714 130.396 150.136 132.794 140.216 134.347C130.115 135.659 119.672 136.124 108.61 136.119C97.5477 136.115 87.1044 135.659 77.0018 134.347C67.0841 132.794 57.5055 130.398 52.3989 120.957C49.9961 116.37 48.9742 110.423 49.7266 103.451C49.7527 103.214 49.7795 102.973 49.8104 102.733C50.7027 95.494 53.5086 87.1731 58.3907 79.1775C63.2508 71.2002 70.1871 63.5521 78.8291 57.9972C87.4372 52.4288 97.7516 48.9527 108.61 48.993C119.468 48.9543 129.782 52.4304 138.391 57.9972C147.032 63.5537 153.968 71.2017 158.827 79.1799C163.71 87.1723 166.517 95.494 167.409 102.733C167.44 102.97 167.467 103.212 167.493 103.45C168.246 110.423 167.222 116.37 164.819 120.957Z" fill="#CBD5E1"/>
<path d="M167.493 103.45C167.084 106.828 166.169 109.836 164.819 112.414C159.714 121.854 150.136 124.249 140.22 125.805C130.119 127.116 119.676 127.581 108.614 127.577C97.5518 127.573 87.1085 127.116 77.0059 125.805C67.0874 124.253 57.5096 121.855 52.403 112.414C51.053 109.836 50.1385 106.829 49.7307 103.451C49.7568 103.214 49.7837 102.973 49.8145 102.733C50.6958 95.5846 53.4415 87.3789 58.2115 79.479L58.2526 79.411L58.3948 79.1741C58.4739 79.0509 58.5458 78.9269 58.6225 78.8036C58.6351 78.7823 58.6486 78.761 58.662 78.7397L58.7015 78.6757C58.8259 78.4751 58.9518 78.275 59.0793 78.0754L59.122 78.0083C63.9362 70.4558 70.6125 63.2801 78.8309 57.9977C87.4389 52.4293 97.7534 48.9532 108.612 48.9935C119.469 48.9548 129.783 52.4309 138.392 57.9977C146.493 63.2106 153.093 70.2528 157.892 77.6868L157.964 77.7982C158.083 77.9822 158.201 78.167 158.316 78.3511C158.33 78.3724 158.343 78.3937 158.356 78.415C158.368 78.4364 158.376 78.4474 158.387 78.4632C158.397 78.479 158.413 78.5059 158.426 78.5272C158.543 78.7136 158.658 78.8992 158.772 79.0864L158.829 79.1796L158.841 79.1994C163.717 87.1854 166.52 95.5001 167.411 102.733C167.44 102.973 167.467 103.211 167.493 103.45Z" fill="url(#paint4_radial_2283_11122)"/>
<path d="M108.61 45.9031C111.885 45.9031 114.54 43.2499 114.54 39.977C114.54 36.704 111.885 34.0508 108.61 34.0508C105.335 34.0508 102.68 36.704 102.68 39.977C102.68 43.2499 105.335 45.9031 108.61 45.9031Z" fill="#2563EB"/>
<path d="M66.3728 82.4512L65.9278 83.1913L65.8535 83.147L58.6184 78.8069C58.6311 78.7855 58.6445 78.7642 58.6579 78.7429L58.6974 78.6789C58.8218 78.4783 58.9477 78.2782 59.0752 78.0786L66.3728 82.4512Z" fill="#94A3B8"/>
<path d="M65.8924 83.0823L65.8536 83.147L65.4474 83.8232L58.2075 79.479L58.2486 79.4111L58.3909 79.1742C58.4699 79.0509 58.5419 78.9269 58.6185 78.8037C58.6312 78.7824 58.6446 78.7611 58.658 78.7397L65.8924 83.0823Z" fill="white"/>
<path d="M158.354 78.4151L151.096 82.7781L151.021 82.8232L150.576 82.0823L157.89 77.686L157.962 77.7974C158.082 77.9814 158.199 78.1663 158.315 78.3503C158.328 78.3724 158.342 78.3937 158.354 78.4151Z" fill="#94A3B8"/>
<path d="M158.771 79.0864L151.499 83.4542L151.093 82.7781L151.054 82.7134L158.311 78.3511C158.325 78.3724 158.338 78.3937 158.351 78.415C158.364 78.4364 158.372 78.4474 158.382 78.4632C158.392 78.479 158.409 78.5059 158.421 78.5272C158.541 78.7136 158.657 78.8992 158.771 79.0864Z" fill="white"/>
<path d="M121.301 144.679H95.918C93.2806 144.679 91.1426 146.815 91.1426 149.451V149.452C91.1426 152.087 93.2806 154.224 95.918 154.224H121.301C123.938 154.224 126.077 152.087 126.077 149.452V149.451C126.077 146.815 123.938 144.679 121.301 144.679Z" fill="#3B82F6"/>
<path d="M95.9189 154.93C94.4647 154.93 93.0702 154.353 92.0419 153.326C91.0137 152.298 90.436 150.904 90.436 149.451C90.436 147.998 91.0137 146.605 92.0419 145.577C93.0702 144.549 94.4647 143.972 95.9189 143.972H121.301C122.755 143.972 124.15 144.549 125.178 145.577C126.206 146.605 126.784 147.998 126.784 149.451C126.784 150.904 126.206 152.298 125.178 153.326C124.15 154.353 122.755 154.93 121.301 154.93H95.9189Z" fill="url(#paint5_linear_2283_11122)"/>
<path d="M121.301 144.679H95.918C93.2806 144.679 91.1426 146.815 91.1426 149.451V149.452C91.1426 152.087 93.2806 154.224 95.918 154.224H121.301C123.938 154.224 126.077 152.087 126.077 149.452V149.451C126.077 146.815 123.938 144.679 121.301 144.679Z" fill="#2563EB"/>
<path d="M95.1853 149.024C95.1853 147.849 96.0547 146.989 97.2269 146.989C98.2322 146.989 98.927 147.572 99.1309 148.388H98.6116C98.4464 147.835 97.9453 147.461 97.2363 147.461C96.3424 147.461 95.6959 148.112 95.6959 149.024C95.6959 149.936 96.3472 150.588 97.2363 150.588C97.9651 150.588 98.5096 150.16 98.6503 149.607H99.1704C98.9997 150.418 98.2567 151.059 97.2269 151.059C96.0508 151.059 95.1853 150.199 95.1853 149.024Z" fill="white"/>
<path d="M103.102 147.082V150.972H102.591V149.213H100.332V150.972H99.8218V147.082H100.332V148.747H102.591V147.082H103.102Z" fill="white"/>
<path d="M106.416 150.009H104.545L104.156 150.972H103.626L105.229 147.082H105.768L107.367 150.972H106.808L106.416 150.009ZM106.236 149.558L105.482 147.679L104.724 149.558H106.236Z" fill="white"/>
<path d="M108.921 147.538V150.972H108.411V147.538H107.009V147.082H110.312V147.538H108.921Z" fill="white"/>
<path d="M112.504 147.082C113.365 147.082 113.848 147.495 113.848 148.16C113.848 148.524 113.596 148.878 113.246 148.961C113.687 149.048 114.036 149.393 114.036 149.874C114.036 150.544 113.525 150.972 112.651 150.972H110.912V147.082H112.504ZM113.336 148.16C113.336 147.747 113.029 147.528 112.49 147.528H111.426V148.799H112.49C113.031 148.795 113.336 148.577 113.336 148.16ZM113.52 149.874C113.52 149.446 113.18 149.218 112.635 149.218H111.426V150.529H112.636C113.18 150.529 113.52 150.301 113.52 149.874Z" fill="white"/>
<path d="M114.521 149.024C114.521 147.849 115.391 146.989 116.571 146.989C117.752 146.989 118.626 147.849 118.626 149.024C118.626 150.198 117.757 151.059 116.576 151.059C115.395 151.059 114.521 150.199 114.521 149.024ZM118.117 149.024C118.117 148.106 117.461 147.456 116.571 147.456C115.682 147.456 115.032 148.106 115.032 149.024C115.032 149.942 115.688 150.593 116.577 150.593C117.466 150.593 118.117 149.937 118.117 149.024Z" fill="white"/>
<path d="M120.702 147.538V150.972H120.192V147.538H118.792V147.082H122.097V147.538H120.702Z" fill="white"/>
<path d="M145.291 151.369C145.28 151.555 145.268 151.741 145.254 151.927C145.246 152.034 145.238 152.141 145.228 152.248C143.714 151.806 142.155 151.538 140.581 151.448C136.513 151.231 133.187 152.317 130.692 154.68C129.768 155.555 128.831 156.655 127.838 157.816C125.88 160.106 123.661 162.708 120.616 164.751C117.15 167.077 113.265 168.231 108.746 168.276H108.472C98.731 168.175 93.9436 162.735 90.0905 158.355C88.8686 156.966 87.7139 155.654 86.5481 154.701C83.2909 152.038 79.2868 151.584 76.5023 151.672C74.9816 151.723 73.4702 151.929 71.9916 152.288C71.9829 152.184 71.9742 152.081 71.9663 151.976C71.9521 151.79 71.9395 151.604 71.9292 151.418C73.4206 151.065 74.9436 150.863 76.4755 150.814C80.6787 150.679 84.3516 151.795 87.0926 154.036C88.313 155.034 89.4906 156.371 90.7363 157.788C94.4929 162.058 99.1641 167.367 108.611 167.418C118.553 167.366 123.337 161.763 127.185 157.258C128.192 156.077 129.144 154.963 130.101 154.057C132.741 151.556 136.39 150.358 140.653 150.591C142.222 150.681 143.778 150.942 145.291 151.369Z" fill="#94A3B8"/>
<path d="M156.127 102.753C154.578 112.718 146.29 117.533 136.693 117.808C131.937 118.014 126.84 117.3 122.134 116.549C117.378 115.798 113.017 115.008 108.61 115.008C104.203 115.008 99.8367 115.798 95.0857 116.553C90.3798 117.304 85.285 118.018 80.5261 117.812C70.9293 117.538 62.6422 112.722 61.0923 102.757C60.3707 98.0395 61.1713 92.0469 63.8357 86.6326C66.451 81.1827 70.9309 76.3118 76.4153 73.0473C81.7955 69.7529 88.1272 68.1796 93.6069 67.6046C99.1949 67.0027 103.929 67.3992 108.61 67.415C113.29 67.3992 118.025 67.0019 123.613 67.6046C129.092 68.1788 135.424 69.7521 140.804 73.0473C146.288 76.3133 150.768 81.1827 153.383 86.6326C156.048 92.043 156.849 98.0355 156.127 102.753Z" fill="#64748B"/>
<path d="M82.2326 116.798C81.6659 116.798 81.1071 116.786 80.5728 116.763H80.557C75.791 116.628 71.5877 115.349 68.4025 113.065C64.9327 110.578 62.8208 107.055 62.1269 102.593C61.3879 97.7599 62.3774 91.9632 64.7762 87.0907C67.3339 81.7617 71.6525 77.0945 76.9481 73.9407L76.9584 73.9344C82.7202 70.4062 89.2495 69.1077 93.7144 68.6424C95.9245 68.4119 98.1457 68.3027 100.368 68.3154C101.862 68.3154 103.329 68.3526 104.747 68.3889C106.072 68.4229 107.324 68.4545 108.604 68.4584C109.883 68.4624 111.141 68.4221 112.465 68.3889C113.888 68.3526 115.352 68.3154 116.847 68.3154C119.069 68.3028 121.289 68.4117 123.498 68.6417C127.965 69.11 134.495 70.4085 140.254 73.9336L140.265 73.9399C145.561 77.0937 149.883 81.7593 152.437 87.0805C154.84 91.9625 155.829 97.7591 155.09 102.595C154.397 107.054 152.285 110.577 148.815 113.065C145.63 115.348 141.427 116.627 136.66 116.763H136.645C136.109 116.786 135.549 116.797 134.985 116.797C130.691 116.797 126.185 116.136 122.298 115.516C121.769 115.433 121.245 115.349 120.726 115.264C116.552 114.594 112.609 113.96 108.61 113.958C104.611 113.956 100.668 114.59 96.495 115.264L94.9213 115.516C91.0334 116.137 86.5267 116.798 82.2326 116.798Z" fill="#0F172A"/>
<path d="M108.61 103.497C106.991 103.499 105.391 103.143 103.926 102.454C102.461 101.765 101.167 100.761 100.137 99.5126C100.022 99.3736 99.9664 99.1945 99.9832 99.0148C100 98.835 100.088 98.6693 100.227 98.5541C100.366 98.4389 100.545 98.3836 100.725 98.4004C100.905 98.4172 101.071 98.5048 101.186 98.6438C102.09 99.7358 103.224 100.615 104.507 101.218C105.791 101.822 107.192 102.135 108.61 102.135C110.028 102.135 111.429 101.822 112.712 101.218C113.996 100.615 115.13 99.7358 116.034 98.6438C116.091 98.575 116.161 98.5181 116.24 98.4764C116.319 98.4347 116.406 98.409 116.495 98.4007C116.584 98.3924 116.674 98.4017 116.759 98.4281C116.844 98.4545 116.924 98.4975 116.993 98.5545C117.061 98.6116 117.118 98.6816 117.16 98.7606C117.202 98.8396 117.228 98.9261 117.236 99.0151C117.244 99.104 117.235 99.1937 117.208 99.2791C117.182 99.3645 117.139 99.4438 117.082 99.5126C116.052 100.761 114.758 101.765 113.293 102.454C111.828 103.143 110.229 103.499 108.61 103.497Z" fill="#2563EB"/>
<path d="M128.599 93.0084C130.94 93.0084 132.838 91.112 132.838 88.7725C132.838 86.4331 130.94 84.5366 128.599 84.5366C126.258 84.5366 124.361 86.4331 124.361 88.7725C124.361 91.112 126.258 93.0084 128.599 93.0084Z" fill="#2563EB"/>
<path d="M88.6197 93.0084C90.9607 93.0084 92.8585 91.112 92.8585 88.7725C92.8585 86.4331 90.9607 84.5366 88.6197 84.5366C86.2786 84.5366 84.3809 86.4331 84.3809 88.7725C84.3809 91.112 86.2786 93.0084 88.6197 93.0084Z" fill="#2563EB"/>
</g>
<defs>
<linearGradient id="paint0_linear_2283_11122" x1="108.476" y1="196.905" x2="108.758" y2="209.478" gradientUnits="userSpaceOnUse">
<stop stop-color="white"/>
<stop offset="1" stop-color="#C3C5C7"/>
</linearGradient>
<linearGradient id="paint1_linear_2283_11122" x1="160.558" y1="203.628" x2="170.016" y2="203.628" gradientUnits="userSpaceOnUse">
<stop stop-color="white"/>
<stop offset="1" stop-color="#C3C5C7"/>
</linearGradient>
<linearGradient id="paint2_linear_2283_11122" x1="164.853" y1="203.628" x2="170.016" y2="203.628" gradientUnits="userSpaceOnUse">
<stop stop-color="white"/>
<stop offset="1" stop-color="#C3C5C7"/>
</linearGradient>
<radialGradient id="paint3_radial_2283_11122" cx="0" cy="0" r="1" gradientUnits="userSpaceOnUse" gradientTransform="translate(108.71 124.196) scale(42.4434 42.4144)">
<stop stop-color="white"/>
<stop offset="1" stop-color="#CBD5E1"/>
</radialGradient>
<radialGradient id="paint4_radial_2283_11122" cx="0" cy="0" r="1" gradientUnits="userSpaceOnUse" gradientTransform="translate(94.3136 57.2023) scale(75.463 75.4115)">
<stop stop-color="white"/>
<stop offset="1" stop-color="#CBD5E1"/>
</radialGradient>
<linearGradient id="paint5_linear_2283_11122" x1="90.436" y1="149.451" x2="126.783" y2="149.451" gradientUnits="userSpaceOnUse">
<stop stop-color="white"/>
<stop offset="1" stop-color="#6B7280"/>
</linearGradient>
<clipPath id="clip0_2283_11122">
<rect width="218" height="213" fill="white"/>
</clipPath>
</defs>
</svg>
