<svg xmlns="http://www.w3.org/2000/svg" version="1.1" xmlns:xlink="http://www.w3.org/1999/xlink" width="247" height="247"><svg width="247" height="247" viewBox="0 0 247 247" fill="none" xmlns="http://www.w3.org/2000/svg">
<path d="M122.548 195.839C123.46 197.391 124.335 198.879 125.211 200.368C125.733 201.265 126.24 202.181 126.827 203.039C126.938 203.186 127.076 203.309 127.235 203.401C127.393 203.494 127.568 203.554 127.75 203.579C128.725 203.649 129.709 203.604 130.747 203.604V208.149C130.476 208.165 130.195 208.196 129.915 208.196C127.449 208.196 124.981 208.182 122.515 208.21C122.034 208.21 121.802 208.06 121.593 207.637C119.878 204.196 118.124 200.773 116.421 197.325C116.135 196.749 115.815 196.519 115.165 196.557C114.16 196.616 113.15 196.573 112.093 196.573V203.656H115.503V208.165H102.194V203.675H105.571V183.06H102.352V178.504H106.382C110.62 178.504 114.857 178.439 119.096 178.538C120.712 178.576 122.317 178.82 123.871 179.263C126.843 180.118 128.781 182.647 128.91 185.742C128.978 187.349 129.018 189.03 128.635 190.568C127.879 193.582 125.829 195.392 122.548 195.839ZM112.107 192.008C114.545 191.895 116.959 191.924 119.326 191.632C121.303 191.386 122.295 189.932 122.32 187.88C122.349 185.507 121.604 184.242 119.456 183.922C117.05 183.563 114.58 183.573 112.107 183.422V192.008Z" fill="black"></path>
<path d="M117.38 246.595H105.32V242.128H107.863V222.08H105.127V217.726C105.301 217.714 105.475 217.691 105.633 217.691C111.058 217.691 116.485 217.62 121.907 217.759C123.474 217.799 125.106 218.282 126.583 218.876C128.499 219.644 129.566 221.314 130.103 223.263C130.642 225.229 130.698 227.297 130.265 229.29C129.615 232.343 127.428 234.318 124.183 234.863C124.329 235.16 124.446 235.447 124.605 235.712C125.759 237.648 126.937 239.571 128.072 241.52C128.339 241.976 128.636 242.175 129.169 242.15C130.059 242.108 130.953 242.138 131.886 242.138V246.624C129.864 246.624 127.858 246.487 125.879 246.666C124.138 246.825 123.21 246.267 122.492 244.637C121.214 241.732 119.657 238.951 118.234 236.103C118.016 235.668 117.769 235.459 117.246 235.487C116.297 235.537 115.343 235.501 114.338 235.501V242.102H117.38V246.595ZM114.32 230.746C116.569 230.746 118.746 230.884 120.899 230.704C122.84 230.543 123.967 229.1 124.054 227.173C124.161 224.861 123.291 223.327 121.268 223.007C119.004 222.646 116.679 222.646 114.324 222.484L114.32 230.746Z" fill="black"></path>
<path d="M68.87 246.544V242.131H71.5381C72.6911 238.846 73.8196 235.644 74.9395 232.437C76.5928 227.698 78.2398 222.957 79.8804 218.215C80.0267 217.791 80.2287 217.653 80.6815 217.656C83.381 217.68 86.0799 217.68 88.7782 217.656C89.2728 217.656 89.454 217.831 89.6159 218.296C92.2423 225.842 94.9139 233.367 97.5263 240.917C97.8415 241.83 98.209 242.279 99.2052 242.124C99.7137 242.044 100.25 242.11 100.834 242.11V246.565H87.8987V242.112H91.1781C90.8194 241.109 90.5268 240.207 90.161 239.334C90.0917 239.226 89.9984 239.136 89.8884 239.071C89.7785 239.005 89.6548 238.966 89.5271 238.956C86.2761 238.933 83.0251 238.933 79.7741 238.956C79.6368 238.975 79.5059 239.027 79.3921 239.106C79.2783 239.185 79.1849 239.29 79.1193 239.412C78.7884 240.238 78.5428 241.097 78.2241 242.065H81.5036V246.544H68.87ZM84.6785 223.804H84.4416C83.2225 227.298 82.0034 230.792 80.7529 234.357H88.4595L84.6785 223.804Z" fill="black"></path>
<path d="M156.627 208.132C156.627 206.738 156.615 205.385 156.64 204.027C156.673 203.804 156.771 203.595 156.92 203.426C161.448 197.374 165.976 191.325 170.505 185.278C170.853 184.82 171.166 184.343 171.56 183.786C170.039 183.714 168.61 183.629 167.178 183.586C165.903 183.547 164.625 183.57 163.347 183.535C162.871 183.521 162.622 183.629 162.504 184.152C162.284 185.077 162.011 185.99 161.687 186.884C161.637 186.999 161.562 187.1 161.466 187.179C161.37 187.259 161.256 187.315 161.135 187.342C159.802 187.382 158.47 187.363 157.089 187.363V178.551H180.479C180.479 179.958 180.527 181.372 180.446 182.779C180.425 183.148 180.028 183.512 179.766 183.85C175.063 189.955 170.358 196.057 165.651 202.156C165.374 202.515 165.128 202.902 164.883 203.269H175.489C175.783 201.797 176.053 200.446 176.332 199.046H181.022C180.823 202.06 180.627 205.059 180.425 208.132H156.627Z" fill="black"></path>
<path d="M165.304 241.753H175.588C175.834 240.534 176.052 239.315 176.335 238.129C176.388 237.91 176.703 237.606 176.905 237.593C178.234 237.546 179.566 237.568 181.013 237.568C180.815 240.585 180.621 243.544 180.425 246.557H157.338C157.338 245.139 157.239 243.69 157.389 242.269C157.446 241.717 158.047 241.212 158.434 240.701C162.742 235.062 167.054 229.424 171.368 223.787C171.556 223.543 171.717 223.278 171.971 222.902C169.108 222.832 166.398 222.756 163.676 222.728C163.47 222.728 163.153 223.014 163.073 223.233C162.749 224.158 162.514 225.114 162.202 226.046C162.14 226.234 161.898 226.492 161.73 226.497C160.461 226.535 159.191 226.518 157.923 226.518V217.721H180.601C180.601 219.114 180.63 220.466 180.578 221.819C180.566 222.122 180.298 222.439 180.09 222.705C175.569 228.511 171.041 234.316 166.506 240.121C166.116 240.623 165.75 241.145 165.304 241.753Z" fill="black"></path>
<path d="M80.1208 183.598H74.4728C74.161 184.907 73.8493 186.21 73.5323 187.539H69.0895V178.558H97.8833V187.567C96.5527 187.567 95.2553 187.589 93.9595 187.544C93.7714 187.544 93.4962 187.241 93.437 187.022C93.1584 186.113 92.9285 185.188 92.709 184.263C92.5941 183.782 92.3973 183.545 91.8382 183.566C90.2203 183.608 88.5989 183.58 86.9113 183.58V203.623H90.0636V208.151H76.8884V203.649H80.1208V183.598Z" fill="black"></path>
<path d="M149.968 208.172H137.21V203.701H140.195V183.074H137.196V178.559H149.83V183.006H146.941V203.649H149.968V208.172Z" fill="black"></path>
<path d="M148.142 242.122H150.866V246.562H138.976V242.124H141.763V222.096H139.06V217.742H150.819V222.026H148.142V242.122Z" fill="black"></path>
<path d="M167.133 96.2774C164.128 95.431 161.096 95.5216 158.111 96.2444C155.626 96.8469 153.202 97.6899 150.758 98.4231C148.494 89.0185 144.008 80.7546 136.874 74.0407C138.442 72.9209 139.919 71.9072 141.354 70.8292C144.694 68.3195 147.655 65.4477 149.779 61.7973C150.955 59.7787 151.636 57.6174 151.521 55.2698C151.38 52.2655 149.874 49.9527 147.679 48.0473C144.314 45.1267 140.229 44.0417 135.92 43.7421C131.996 43.4635 128.119 43.9441 124.293 44.8654C115.865 46.8944 108.15 50.5535 100.835 55.1426C92.1273 60.6008 84.4817 67.3338 77.4613 74.7879C74.9133 77.4943 72.3932 80.253 70.9268 83.7989C70.8119 83.4498 70.7606 83.0829 70.7753 82.7156C70.9651 80.88 71.1602 79.0443 71.4075 77.2174C71.5155 76.425 71.2908 75.8363 70.6133 75.4566C69.9359 75.077 69.2897 75.2581 68.8247 75.8311C68.5244 76.215 68.2955 76.6497 68.149 77.1146C67.4697 79.2046 67.5115 81.3589 67.6944 83.4906C67.7967 84.6966 68.1091 85.8754 68.6175 86.9738C69.5405 88.9244 71.1271 89.0185 72.698 87.343C74.6329 85.281 76.1586 82.8427 77.989 80.6745C83.5743 74.0651 89.9468 68.2917 96.8888 63.1331C104.393 57.56 112.42 52.9708 121.402 50.2243C126.773 48.582 132.235 47.49 137.902 48.42C140.448 48.838 142.85 49.6392 144.859 51.3181C146.469 52.6556 147.615 54.3467 147.179 56.5237C146.886 57.8708 146.36 59.1563 145.624 60.3221C144.039 62.8892 141.831 64.9287 139.485 66.7939C132.215 72.6181 123.75 76.7681 114.693 78.9485C113.021 79.3543 111.301 79.5546 109.439 79.8786C110.775 78.7883 112.008 77.9628 113.025 76.9178C114.998 74.8941 114.392 71.8951 111.875 70.8222C111.442 70.6684 110.998 70.5439 110.548 70.4495C110.579 70.3764 110.62 70.3078 110.67 70.2458C110.924 70.0072 111.18 69.7703 111.447 69.5491C114.505 66.9768 117.936 65.021 121.581 63.4204C122.53 63.0059 123.535 62.7238 124.495 62.3319C125.172 62.055 125.552 61.5343 125.456 60.7645C125.366 60.0208 124.883 59.7195 124.192 59.7335C123.356 59.7509 122.508 59.7335 121.691 59.8676C118.87 60.3517 116.292 61.5308 113.777 62.8283C106.107 66.7913 99.2556 72.1686 93.5833 78.6768C90.7218 81.958 88.1286 85.4464 86.2424 89.3964C85.6471 90.675 85.1589 92.0009 84.783 93.3603C84.3424 94.8911 85.5075 95.9727 86.9983 95.4502C87.7115 95.2147 88.3921 94.8899 89.0238 94.4836C90.323 93.6128 91.5996 92.7089 92.8274 91.7441C96.3803 88.9575 99.8652 86.0647 103.799 83.8093C104.184 83.6012 104.629 83.5323 105.059 83.6143C107.293 84.1368 109.55 84.1664 111.8 83.8929C115.921 83.3948 119.887 82.2419 123.722 80.6901C126.872 79.4153 129.957 77.9732 133.116 76.5852C140.431 82.5798 144.436 90.7026 146.982 99.6997C147.043 99.9139 146.82 100.372 146.611 100.476C144.105 101.729 141.617 103.03 139.043 104.134C136.34 105.285 133.539 106.208 130.798 107.269C129.493 107.777 128.969 108.88 129.37 110.024C129.77 111.168 130.993 111.765 132.287 111.264C135.866 109.883 139.455 108.516 142.972 106.987C146.418 105.489 149.764 103.763 153.184 102.204C156.041 100.903 159.017 99.994 162.192 99.9209C166.096 99.832 169.397 100.966 171.394 104.606C172.243 106.151 172.614 107.845 172.735 109.59C173.018 113.57 171.691 117.164 167.812 119.274C165.688 120.408 163.323 121.018 160.915 121.05C156.014 121.182 151.11 121.224 146.214 121.463C140.455 121.743 134.72 121.602 129.117 120.21C125.569 119.34 122.102 118.121 118.607 117.036C117.83 116.795 117.166 116.774 116.738 117.574C116.309 118.373 116.849 118.869 117.379 119.345C117.513 119.454 117.654 119.556 117.8 119.65C120.125 121.315 122.706 122.459 125.42 123.307C130.608 124.932 135.955 125.397 141.361 125.406H142.46C140.875 127.525 138.868 128.511 136.529 128.878C131.71 129.64 126.951 129.122 122.194 128.244C117.576 127.391 113.173 125.829 108.76 124.286C104.754 122.893 100.713 121.56 96.4221 121.325C95.6819 121.283 94.9522 121.287 94.576 122.116C94.2155 122.908 94.6509 123.42 95.1629 123.941C101.17 130.014 107.843 135.221 115.31 139.38C120.679 142.371 126.203 145.039 132.421 145.69C137.318 146.213 141.523 144.671 144.708 140.814C147.348 137.611 148.494 133.847 148.613 129.735C148.654 128.265 148.613 126.794 148.613 125.256H155.405V126.092C155.407 129.25 155.063 132.399 154.379 135.483C151.941 146.516 146.072 155.217 136.578 161.378C132.888 163.773 128.807 165.274 124.387 165.443C118.528 165.666 112.892 164.388 107.417 162.408C98.4302 159.163 90.8002 153.884 84.5513 146.695C81.8623 143.602 79.5146 140.211 77.0346 136.942C76.4564 136.179 75.7423 135.984 74.8594 136.531C71.2873 138.746 67.4506 139.116 63.4258 138.193C59.5333 137.301 56.1842 135.34 53.1207 132.861C49.2143 129.7 46.1177 125.94 44.7436 120.998C43.2354 115.573 43.6987 110.463 47.2881 105.877C49.6062 102.916 52.3126 102.013 55.7941 103.383C57.4399 104.033 59.0003 104.987 60.4528 106.011C62.2101 107.253 63.377 106.985 64.0806 104.803C64.8713 105.151 65.6985 105.421 66.4196 105.861C69.7913 107.924 72.0658 110.964 73.851 114.409C74.6625 115.977 75.3383 117.607 76.1864 119.146C76.7629 120.191 77.7243 120.839 78.9869 120.691C80.3349 120.534 81.1883 119.671 81.5662 118.427C81.8904 117.379 82.116 116.304 82.2402 115.214C82.7627 110.337 84.7011 106.1 87.9266 102.429C88.7503 101.492 88.7625 100.513 87.9858 99.7101C87.209 98.9073 86.1484 98.8846 85.2236 99.7833C81.8257 103.078 78.3251 106.304 76.9388 111.191C76.6985 110.79 76.5208 110.494 76.3484 110.202C74.6469 107.241 72.4925 104.698 69.6885 102.737C67.3008 101.065 64.6989 100.125 61.6772 100.647C61.7277 100.436 61.7434 100.323 61.7799 100.217C62.4957 98.0941 63.5708 96.1101 64.9584 94.3512C65.9894 93.0659 65.7177 91.7266 64.2339 90.9882C63.1488 90.45 62.0516 89.8771 60.8952 89.5636C59.3108 89.1572 57.7008 88.8581 56.0762 88.6684C55.3691 88.5744 54.8815 89.0986 54.7683 89.8057C54.6516 90.5424 54.9755 91.1119 55.6704 91.4149C55.9438 91.5052 56.2239 91.5739 56.5081 91.6204L61.3759 92.8796L57.938 99.5534C57.6924 99.4576 57.3197 99.3078 56.9435 99.1668C53.2304 97.7735 49.7664 98.242 46.6489 100.689C42.5388 103.916 40.5359 108.338 39.9734 113.403C39.3725 118.802 40.7118 123.84 43.6168 128.38C47.4762 134.415 52.9048 138.656 59.4654 141.418C62.898 142.865 66.4927 143.381 70.1727 142.618C71.7401 142.296 73.2397 141.712 74.8367 141.225C74.9011 141.31 75.0405 141.493 75.1746 141.679C78.9417 146.883 82.9752 151.841 87.9631 155.96C97.1431 163.541 107.586 168.151 119.439 169.491C125.482 170.175 131.19 169.083 136.564 166.262C142.242 163.282 146.8 159.017 150.631 153.924C155.743 147.132 158.559 139.481 159.236 131.028C159.39 129.129 159.517 127.229 159.66 125.265C159.877 125.265 160.104 125.265 160.328 125.265C163.056 125.315 165.763 124.775 168.263 123.682C172.187 121.963 175.148 119.314 176.252 115.007C177.151 111.623 177.037 108.05 175.924 104.731C174.486 100.393 171.572 97.5296 167.133 96.2774ZM139.15 132.029C138.989 133.074 138.877 134.07 138.67 135.045C138.496 135.85 138.081 136.533 137.128 136.526C136.212 136.526 135.723 135.935 135.545 135.089C135.39 134.337 135.286 133.576 135.154 132.79L139.15 132.029ZM130.746 132.771C131.331 132.771 131.761 133.006 131.808 133.642C131.897 134.491 131.931 135.345 131.912 136.198C131.869 137.003 131.251 137.083 130.632 136.874C128.992 136.322 127.966 135.094 127.193 133.617C127.066 133.34 126.957 133.056 126.865 132.766C128.208 132.769 129.478 132.767 130.749 132.771H130.746ZM137.902 141.233C135.986 142.148 133.948 142.071 131.93 141.836C127.142 141.279 122.816 139.321 118.596 137.153C113.387 134.474 108.399 131.426 103.867 127.684C103.246 127.172 102.66 126.614 101.868 125.907C109.183 128.055 116.067 130.852 123.434 132.029C124.208 135.824 126.068 138.631 129.812 139.88C130.331 140.055 130.872 140.158 131.42 140.185C133.024 140.251 133.586 139.856 134.206 138.297C135.115 139.192 136.136 139.797 137.437 139.875C138.774 139.955 139.764 139.318 140.714 138.504C140.128 139.772 139.15 140.643 137.905 141.233H137.902Z" fill="black"></path>
<path d="M130.678 91.5229C130.852 95.2412 132.811 98.0417 135.521 100.405C135.681 100.544 136.063 100.546 136.293 100.468C137.874 99.9255 139.448 99.3612 141.014 98.7749C142.264 98.3099 142.813 97.4565 142.616 96.1451C141.951 91.7232 140.164 87.8464 136.831 84.7968C133.133 81.4146 127.983 82.6181 126.162 87.2629C125.834 88.0989 125.629 88.9836 125.415 89.6907C124.988 89.3424 124.533 88.9819 124.098 88.604C122.689 87.3848 121.123 86.5959 119.197 86.8484C116.907 87.1497 115.581 88.6684 114.685 90.6155C113.431 93.3394 113.492 96.1886 114.148 99.0344C114.845 102.046 116.156 104.759 118.502 106.872C119.248 107.542 119.993 107.607 120.629 107.128C121.228 106.678 121.344 105.889 120.897 105.001C120.533 104.278 120.124 103.58 119.733 102.871C118.425 100.497 117.342 98.0452 117.304 95.2725C117.285 93.928 117.478 92.6096 118.283 91.4706C118.962 90.5145 119.861 90.4048 120.754 91.1449C119.556 92.1359 119.119 93.4578 119.413 95.1053C119.955 98.1357 121.379 100.678 123.532 102.864C123.962 103.298 124.349 103.402 124.909 103.223C126.25 102.793 127.604 102.401 128.96 101.992C129.206 102.448 129.37 102.821 129.594 103.152C130.117 103.934 131.024 104.294 131.684 103.939C132.536 103.482 132.329 102.72 132.066 102.033C131.494 100.553 130.857 99.1006 130.256 97.6324C129.354 95.4293 128.555 93.2018 128.762 90.7583C128.879 89.365 129.232 88.0763 130.256 87.0679C130.937 86.3956 131.912 86.3503 132.759 86.8937C130.913 88.6179 130.566 89.2414 130.678 91.5229Z" fill="black"></path>
<path d="M62.8685 112.79C61.4962 112.138 60.0506 111.694 58.5145 111.851C55.2787 112.183 53.4796 114.986 54.2912 118.403C55.0401 121.564 56.867 124.063 59.2634 126.165C61.9751 128.548 65.1239 129.934 69.0913 130.105C69.5476 130.04 70.333 129.99 71.0906 129.815C73.083 129.357 73.7448 128.471 73.1962 126.517C72.6563 124.601 71.9945 122.654 71.0541 120.898C69.1801 117.391 66.5503 114.531 62.8685 112.79ZM64.6101 123.812C63.5164 122.293 63.391 120.581 63.8073 118.629C66.3291 120.658 67.8234 123.183 69.0094 126.118C67.0641 126.014 65.6377 125.24 64.6101 123.812Z" fill="black"></path>
<path d="M51.6491 34.6161C55.0162 38.414 58.3746 42.2153 61.7243 46.0201C64.5439 49.216 67.3461 52.424 70.1902 55.5989C70.5664 56.0204 71.1376 56.2677 71.4093 56.4488C72.5257 56.4227 73.1509 56.1005 73.4992 55.3917C73.8963 54.608 73.7552 53.8591 73.1892 53.2147C70.131 49.7315 67.0652 46.2523 63.9918 42.7773C60.7681 39.1199 57.5305 35.4887 54.3138 31.8331C50.733 27.7647 47.1732 23.6771 43.5942 19.6088C42.6781 18.5638 41.5461 18.4158 40.7066 19.1664C39.794 19.9815 39.7766 21.2232 40.6892 22.256C44.3385 26.3778 47.9918 30.4978 51.6491 34.6161Z" fill="black"></path>
<path d="M177.997 50.1669C178.833 50.7068 179.662 50.5587 180.648 49.6444C186.917 43.8274 193.187 38.0053 199.457 32.1779C203.024 28.8584 206.579 25.525 210.122 22.1776C210.533 21.7875 210.807 21.2546 211.145 20.7843C210.979 19.8473 210.648 19.2465 209.908 18.9138C209.128 18.5655 208.367 18.6178 207.724 19.2047C206.803 20.0459 205.925 20.9341 205.011 21.7823C197.633 28.6325 190.253 35.4776 182.868 42.3175C181.167 43.8953 179.449 45.4523 177.76 47.0494C176.748 48.0142 176.872 49.4406 177.997 50.1669Z" fill="black"></path>
<path d="M79.8352 17.0487C83.8827 24.9439 87.9354 32.8392 91.9933 40.7344C92.212 41.2001 92.5458 41.6024 92.9634 41.903C93.7036 42.3698 94.4664 42.1939 95.1055 41.593C95.8022 40.9347 95.891 40.1388 95.3842 39.1443C90.6389 29.8279 85.896 20.5104 81.1553 11.1917C80.551 10.0074 79.9606 8.81611 79.311 7.65621C78.832 6.80631 77.9874 6.47019 77.1845 6.70356C76.291 6.96306 75.8104 7.61093 75.7094 8.59842C75.8263 9.00605 75.9694 9.40571 76.1378 9.7949C77.3534 12.2192 78.5952 14.6331 79.8352 17.0487Z" fill="black"></path>
<path d="M115.639 35.3127C115.956 36.2706 116.797 36.7565 117.814 36.6085C118.831 36.4605 119.382 35.7812 119.382 34.6631C119.391 29.2375 119.391 23.813 119.382 18.3896C119.382 12.9953 119.382 7.60043 119.382 2.20496C119.382 0.848251 118.633 0.00877297 117.466 6.49724e-05C116.299 -0.00864302 115.514 0.858675 115.514 2.17881C115.514 12.9407 115.514 23.7015 115.514 34.4611C115.51 34.7498 115.552 35.0373 115.639 35.3127Z" fill="black"></path>
<path d="M149.534 37.9914C150.537 38.0646 151.039 37.3139 151.523 36.5337L164.365 15.8975C165.649 13.8337 166.95 11.7803 168.207 9.70087C168.657 8.95895 168.693 8.15434 168.134 7.42461C167.64 6.78022 166.663 6.43887 165.955 6.84118C165.403 7.19369 164.94 7.67089 164.606 8.23446C162.418 11.6776 160.274 15.1486 158.111 18.6092C154.707 24.0546 151.298 29.4982 147.883 34.9401C147.675 35.2373 147.553 35.5861 147.531 35.9481C147.508 36.31 147.586 36.6712 147.756 36.9917C148.094 37.6744 148.682 38.0071 149.534 37.9914Z" fill="black"></path>
<path d="M52.283 73.1769C52.9936 72.9087 53.3837 72.3566 53.4551 71.5084C53.6293 70.5174 52.9326 69.941 52.2029 69.3819C45.7845 64.4358 39.3685 59.4885 32.9548 54.54C31.039 53.0562 29.1232 51.5567 27.1744 50.0972C26.4777 49.5747 25.6836 49.4598 24.9103 49.9422C24.2137 50.3706 23.7835 51.3076 24.1127 52.0513C24.3634 52.6225 24.8633 53.138 25.3666 53.5334C28.5729 56.0569 31.8105 58.5352 35.0377 61.0344C40.1139 64.967 45.1889 68.9041 50.2628 72.846C50.5371 73.0804 50.8705 73.2353 51.2267 73.2936C51.5828 73.3519 51.9482 73.3116 52.283 73.1769Z" fill="black"></path>
<path d="M59.3295 83.8564C58.4152 83.576 57.7029 83.9957 57.4382 84.7777C57.1926 85.5109 57.5357 86.15 58.4013 86.5593C58.5301 86.622 58.6712 86.6603 58.7966 86.7335C60.364 87.5851 61.9419 88.4228 63.4989 89.3006C64.0998 89.6489 64.624 90.1191 65.2301 90.4483C66.0765 90.9081 67.1284 90.6225 67.8878 89.8057C68.5844 89.0568 68.8195 88.0641 68.3719 87.3517C66.895 85.0361 65.8385 82.4779 65.251 79.795C65.0594 78.8946 64.4011 78.3686 63.7131 78.4017C62.9869 78.4452 62.3756 79.0983 62.2711 80.0092C62.2343 80.3253 62.2573 80.6455 62.339 80.9531C62.7779 82.5571 63.2446 84.1524 63.7323 85.8296C63.3259 85.556 62.903 85.3077 62.4662 85.0859C61.4441 84.6184 60.397 84.2079 59.3295 83.8564Z" fill="black"></path>
<path d="M221.666 87.4372L214.447 79.3614V79.2412C214.324 79.1639 214.208 79.0771 214.098 78.9817C210.575 75.3069 206.686 72.0414 202.646 68.9675C199.33 66.4457 195.938 64.0243 192.469 61.7033C190.522 60.3988 188.251 60.1149 185.966 60.7611C183.805 61.3741 181.672 62.0899 179.533 62.7831C171.38 65.4251 163.162 67.8024 154.816 69.7913C153.085 70.204 151.312 70.6325 149.72 71.3935C147.301 72.5482 146.004 74.6259 146.204 77.3637C146.399 80.0336 147.888 81.8919 150.372 82.8463C152.125 83.5255 153.996 83.6056 155.854 83.529C159.555 83.3544 163.217 82.6987 166.748 81.5784C168.294 81.0995 169.817 80.5335 171.241 80.0545C170.865 81.5349 170.412 83.0152 170.118 84.5443C169.453 87.9683 171.097 90.8245 174.315 91.8591C175.262 92.1603 176.274 92.2614 177.26 92.4547C177.018 97.7039 181.266 101.022 185.487 100.424C185.615 100.823 185.738 101.232 185.874 101.643C186.367 103.111 187.374 104.351 188.709 105.133C190.045 105.916 191.619 106.189 193.14 105.902C195.103 105.522 196.689 104.446 197.886 102.913C199.166 101.274 200.241 99.4786 201.456 97.7875C202.297 96.6154 203.133 95.4154 204.136 94.3879C205.321 93.1687 206.806 93.5745 207.446 95.1472C207.531 95.3618 207.598 95.5832 207.646 95.809C208.189 98.1462 207.942 100.476 207.54 102.796C206.731 107.452 204.99 111.8 202.855 115.966C200.852 119.873 198.546 123.629 196.428 127.461C194.528 130.911 192.912 134.485 192.053 138.358C191.717 139.866 192.49 140.779 194.047 140.709C194.278 140.69 194.507 140.659 194.734 140.615C199.209 139.955 203.685 139.918 208.156 140.652C210.291 141 212.432 141.568 214.436 140.188L215.446 138.755C215.446 138.755 222.761 100.201 223.78 95.135C224.799 90.0687 221.666 87.4372 221.666 87.4372ZM219.834 96.3193L212.954 133.515L212.541 135.552C212.242 137.047 211.594 137.44 210.063 137.151C206.664 136.508 203.236 136.216 199.775 136.479C198.588 136.569 197.4 136.653 195.916 136.757C197.529 133.565 198.922 130.488 200.596 127.564C203.245 122.947 205.845 118.312 207.924 113.404C209.889 108.77 211.296 104 211.408 98.9212C211.458 96.6432 211.233 94.4053 210.084 92.3693C208.649 89.8353 205.986 89.0603 203.386 90.37C201.89 91.1276 200.793 92.3206 199.868 93.6634C198.506 95.6418 197.255 97.7021 195.885 99.6667C195.139 100.729 194.249 101.706 192.948 102.152C191.381 102.687 190.134 102.122 189.716 100.524C189.519 99.7448 189.506 98.9309 189.678 98.1462C190.228 95.7724 191.637 93.8393 193.211 92.0506C194.34 90.7706 195.62 89.6281 196.822 88.4142C197.6 87.627 197.63 86.3364 196.911 85.5893C196.191 84.8421 195.099 84.7742 194.338 85.4953C191.012 88.6301 187.959 91.9862 186.266 96.3489C186.193 96.5405 185.938 96.7895 185.761 96.7948C183.62 96.8679 181.407 96.1347 181.156 93.1008C180.982 91.0109 181.841 89.2693 182.877 87.5747C184.444 85.0337 186.48 82.8985 188.624 80.8504C189.584 79.9343 189.636 78.7605 188.847 77.928C188.058 77.0955 186.973 77.1147 186.001 78.0639C182.985 81.0089 180.153 84.1055 178.338 87.991C178.1 88.503 177.791 88.6876 177.251 88.55C176.973 88.4804 176.673 88.4925 176.389 88.442C174.592 88.1233 173.645 87.0105 173.895 85.4256C174.05 84.4856 174.258 83.5553 174.519 82.639C175.327 79.7306 176.868 77.1843 178.509 74.6904C179.185 73.6611 179.007 72.5482 178.086 71.9386C177.088 71.2786 175.996 71.4928 175.299 72.5151C174.951 73.015 174.667 73.5601 174.315 74.0495C174.141 74.2968 173.911 74.5719 173.645 74.6834C171.098 75.6935 168.575 76.7733 165.982 77.6232C162.88 78.6502 159.662 79.2879 156.403 79.5216C154.804 79.6296 153.217 79.5825 151.72 78.9068C150.903 78.5376 150.326 77.9872 150.326 76.991C150.326 75.9948 150.809 75.3452 151.664 74.936C152.027 74.7608 152.408 74.6243 152.799 74.5284C153.924 74.2672 155.063 74.0738 156.183 73.79C165.887 71.3552 175.55 68.7272 184.988 65.4007C187.471 64.5299 189.777 64.5299 191.98 66.1356C198.283 70.7335 204.53 75.3957 210.014 80.9845L211.859 82.8689C212.078 83.1162 217.839 89.5828 219.443 91.7981C221.079 94.057 219.834 96.3158 219.834 96.3158V96.3193Z" fill="black"></path>
</svg><style>@media (prefers-color-scheme: light) { :root { filter: none; } }
@media (prefers-color-scheme: dark) { :root { filter: none; } }
</style></svg>