<svg xmlns="http://www.w3.org/2000/svg" version="1.1" xmlns:xlink="http://www.w3.org/1999/xlink" width="247" height="247"><svg width="247" height="247" viewBox="0 0 247 247" fill="none" xmlns="http://www.w3.org/2000/svg">
<path d="M116.185 58.2585C118.177 63.4671 120.086 68.4594 121.998 73.4576C123.139 76.4682 124.246 79.5432 125.527 82.4252C125.769 82.9164 126.071 83.3293 126.417 83.6403C126.763 83.9513 127.145 84.1542 127.542 84.2374C129.671 84.4712 131.82 84.3192 134.086 84.3192V99.5768C133.493 99.6294 132.88 99.7347 132.268 99.7347C126.884 99.7347 121.496 99.6879 116.112 99.7815C115.063 99.7815 114.557 99.2787 114.101 97.8582C110.356 86.3068 106.527 74.8197 102.808 63.245C102.185 61.31 101.485 60.5383 100.067 60.6669C97.873 60.8657 95.6677 60.7196 93.3598 60.7196V84.4946H100.805V99.6295H71.7477V84.5589H79.1203V15.3617H72.0937V0.0689935H80.8921C90.143 0.0689935 99.3939 -0.14726 108.649 0.185953C112.177 0.312406 115.68 1.12963 119.074 2.61784C125.561 5.48815 129.793 13.9763 130.074 24.3643C130.223 29.76 130.31 35.4013 129.474 40.5631C127.823 50.6823 123.348 56.7561 116.185 58.2585ZM93.3902 45.3976C98.7133 45.0176 103.983 45.117 109.151 44.1349C113.466 43.3107 115.633 38.4294 115.687 31.543C115.751 23.5751 114.124 19.331 109.436 18.2554C104.181 17.0512 98.7894 17.0863 93.3902 16.5777V45.3976Z" fill="black"></path>
<path d="M106.56 246.635H80.419V229.855H85.9302V154.554H80V138.2C80.3775 138.154 80.755 138.069 81.0985 138.069C92.857 138.069 104.619 137.8 116.37 138.324C119.768 138.474 123.305 140.286 126.506 142.517C130.658 145.402 132.972 151.675 134.135 158.996C135.303 166.383 135.423 174.151 134.486 181.636C133.078 193.104 128.336 200.522 121.304 202.57C121.621 203.682 121.874 204.761 122.218 205.756C124.72 213.03 127.272 220.252 129.733 227.572C130.311 229.286 130.956 230.032 132.111 229.94C134.04 229.783 135.977 229.894 138 229.894V246.746C133.617 246.746 129.269 246.229 124.981 246.903C121.206 247.498 119.194 245.405 117.639 239.282C114.868 228.37 111.493 217.923 108.409 207.228C107.937 205.592 107.401 204.807 106.269 204.912C104.212 205.101 102.143 204.964 99.965 204.964V229.757H106.56V246.635ZM99.9272 187.105C104.801 187.105 109.519 187.622 114.185 186.948C118.394 186.34 120.836 180.923 121.025 173.682C121.255 165.001 119.371 159.238 114.985 158.034C110.078 156.68 105.038 156.68 99.9348 156.071L99.9272 187.105Z" fill="black"></path>
<path d="M0 245.922V229.435H6.01013C8.6072 217.164 11.1493 205.198 13.6719 193.22C17.3962 175.514 21.1061 157.804 24.8016 140.089C25.1311 138.501 25.5862 137.987 26.6062 138C32.687 138.087 38.7664 138.087 44.8446 138C45.9587 138 46.3667 138.651 46.7315 140.388C52.6475 168.58 58.6655 196.694 64.5501 224.9C65.2602 228.309 66.088 229.988 68.3319 229.409C69.4775 229.109 70.6858 229.357 72 229.357V246H42.8634V229.363H50.2505C49.4424 225.615 48.7833 222.245 47.9595 218.985C47.8034 218.583 47.5932 218.246 47.3454 218.001C47.0977 217.756 46.8191 217.61 46.5315 217.574C39.2084 217.487 31.8854 217.487 24.5623 217.574C24.2529 217.645 23.9581 217.837 23.7017 218.133C23.4454 218.429 23.2349 218.822 23.0872 219.278C22.3419 222.362 21.7887 225.57 21.0708 229.187H28.4579V245.922H0ZM35.6097 160.968H35.0761C32.33 174.02 29.5838 187.072 26.7671 200.39H44.1266L35.6097 160.968Z" fill="black"></path>
<path d="M191.007 100C191.007 95.29 190.979 90.7153 191.035 86.123C191.112 85.3688 191.336 84.6634 191.679 84.0918C202.072 63.6346 212.466 43.1852 222.859 22.7436C223.659 21.1952 224.378 19.582 225.282 17.698C221.792 17.4566 218.51 17.1681 215.224 17.0209C212.298 16.8914 209.364 16.9679 206.429 16.8502C205.338 16.8031 204.766 17.1681 204.495 18.9344C203.99 22.0636 203.364 25.1478 202.62 28.1719C202.506 28.5589 202.332 28.9009 202.112 29.17C201.892 29.4391 201.632 29.6277 201.353 29.7204C198.294 29.8558 195.236 29.791 192.066 29.791V0H245.753C245.753 4.75714 245.865 9.53784 245.677 14.295C245.629 15.5431 244.717 16.7737 244.118 17.9158C233.322 38.5536 222.522 59.1816 211.718 79.7998C211.082 81.0127 210.519 82.3197 209.955 83.562H234.3C234.976 78.587 235.595 74.0183 236.235 69.2847H247C246.544 79.476 246.093 89.6144 245.629 100H191.007Z" fill="black"></path>
<path d="M211.881 228.01H234.872C235.421 223.444 235.907 218.878 236.542 214.436C236.659 213.614 237.364 212.479 237.815 212.427C240.786 212.25 243.765 212.335 247 212.335C246.556 223.633 246.124 234.715 245.684 246H194.072C194.072 240.69 193.85 235.263 194.185 229.941C194.313 227.873 195.657 225.981 196.521 224.07C206.154 202.949 215.793 181.832 225.438 160.719C225.858 159.806 226.217 158.815 226.785 157.406C220.384 157.145 214.326 156.858 208.24 156.753C207.781 156.753 207.072 157.823 206.893 158.645C206.169 162.109 205.644 165.69 204.947 169.18C204.806 169.884 204.265 170.849 203.891 170.869C201.053 171.013 198.215 170.947 195.38 170.947V138H246.077C246.077 143.218 246.143 148.28 246.027 153.348C245.999 154.483 245.4 155.671 244.936 156.669C234.829 178.412 224.706 200.155 214.567 221.898C213.695 223.776 212.878 225.733 211.881 228.01Z" fill="black"></path>
<path d="M24.3331 16.9943H11.8746C11.1869 21.4103 10.4993 25.8027 9.80009 30.2833H0V0H63.5143V30.3772C60.5793 30.3772 57.7172 30.4535 54.859 30.3009C54.4441 30.3009 53.8371 29.2791 53.7065 28.5392C53.0918 25.4739 52.5847 22.3557 52.1007 19.2375C51.8471 17.6168 51.413 16.8182 50.1799 16.8886C46.611 17.0296 43.0344 16.9356 39.3118 16.9356V84.5136H46.2652V99.7815H17.203V84.6017H24.3331V16.9943Z" fill="black"></path>
<path d="M176.429 99.7815H147.056V84.7171H153.929V15.2111H147.024V0H176.112V14.9822H169.459V84.5411H176.429V99.7815Z" fill="black"></path>
<path d="M174.044 229.364H180V246H154V229.371H160.093V154.316H154.183V138H179.897V154.055H174.044V229.364Z" fill="black"></path>
</svg><style>@media (prefers-color-scheme: light) { :root { filter: none; } }
@media (prefers-color-scheme: dark) { :root { filter: none; } }
</style></svg>